<?xml version="1.0" encoding="utf-8"?>
<!-- Generator: Adobe Illustrator 24.1.2, SVG Export Plug-In . SVG Version: 6.00 Build 0)  -->
<svg version="1.1" id="Layer_1" xmlns="http://www.w3.org/2000/svg" xmlns:xlink="http://www.w3.org/1999/xlink" x="0px" y="0px"
	 viewBox="0 0 40 40" style="enable-background:new 0 0 40 40;" xml:space="preserve">
<style type="text/css">
	.st0{fill:url(#SVGID_1_);stroke:url(#SVGID_2_);stroke-width:0.25;}
	.st1{fill:url(#SVGID_3_);stroke:url(#SVGID_4_);stroke-width:0.25;}
	.st2{fill:url(#SVGID_5_);stroke:url(#SVGID_6_);stroke-width:0.25;}
	.st3{fill:url(#SVGID_7_);stroke:url(#SVGID_8_);stroke-width:0.25;}
	.st4{fill:url(#SVGID_9_);stroke:url(#SVGID_10_);stroke-width:0.25;}
	.st5{fill:url(#SVGID_11_);stroke:url(#SVGID_12_);stroke-width:0.25;}
	.st6{fill:url(#SVGID_13_);stroke:url(#SVGID_14_);stroke-width:0.25;}
	.st7{fill:url(#SVGID_15_);stroke:url(#SVGID_16_);stroke-width:0.25;}
	.st8{fill:url(#SVGID_17_);stroke:url(#SVGID_18_);stroke-width:0.25;}
	.st9{fill:url(#SVGID_19_);stroke:url(#SVGID_20_);stroke-width:0.25;}
</style>
<g>
	<g>
		<g>
			<g>
				<g>
					<linearGradient id="SVGID_1_" gradientUnits="userSpaceOnUse" x1="14.9815" y1="24.7815" x2="29.2526" y2="24.7815">
						<stop  offset="0.2593" style="stop-color:#FFDB6E"/>
						<stop  offset="1" style="stop-color:#FFBC5E"/>
					</linearGradient>
					<linearGradient id="SVGID_2_" gradientUnits="userSpaceOnUse" x1="14.8565" y1="24.7815" x2="29.3776" y2="24.7815">
						<stop  offset="0.2593" style="stop-color:#FFDB6E"/>
						<stop  offset="1" style="stop-color:#FFBC5E"/>
					</linearGradient>
					<path class="st0" d="M24.7,37.4c-0.3,0-0.5-0.2-0.5-0.5c0-5.5,2.9-8.9,3.9-9.8l-6-13.1l-6,13.1c0.9,1,3.9,4.4,3.9,9.8
						c0,0.3-0.2,0.5-0.5,0.5c-0.3,0-0.5-0.2-0.5-0.5c0-5.9-3.8-9.3-3.8-9.3c-0.2-0.2-0.2-0.4-0.1-0.6l6.6-14.5
						c0.1-0.2,0.3-0.3,0.5-0.3h0c0.2,0,0.4,0.1,0.5,0.3l6.6,14.5c0.1,0.2,0,0.5-0.1,0.6c0,0-3.8,3.4-3.8,9.3
						C25.3,37.2,25,37.4,24.7,37.4z"/>
				</g>
				<g>
					<linearGradient id="SVGID_3_" gradientUnits="userSpaceOnUse" x1="21.6858" y1="19.8591" x2="22.5387" y2="19.8591">
						<stop  offset="0.2593" style="stop-color:#FFDB6E"/>
						<stop  offset="1" style="stop-color:#FFBC5E"/>
					</linearGradient>
					<linearGradient id="SVGID_4_" gradientUnits="userSpaceOnUse" x1="21.5608" y1="19.8591" x2="22.6637" y2="19.8591">
						<stop  offset="0.2593" style="stop-color:#FFDB6E"/>
						<stop  offset="1" style="stop-color:#FFBC5E"/>
					</linearGradient>
					<path class="st1" d="M22.1,27.5c-0.2,0-0.4-0.2-0.4-0.4V12.7c0-0.2,0.2-0.4,0.4-0.4s0.4,0.2,0.4,0.4V27
						C22.5,27.3,22.3,27.5,22.1,27.5z"/>
				</g>
				<linearGradient id="SVGID_5_" gradientUnits="userSpaceOnUse" x1="20.4307" y1="27.0395" x2="23.7947" y2="27.0395">
					<stop  offset="0.2593" style="stop-color:#FFDB6E"/>
					<stop  offset="1" style="stop-color:#FFBC5E"/>
				</linearGradient>
				<linearGradient id="SVGID_6_" gradientUnits="userSpaceOnUse" x1="20.3057" y1="27.0395" x2="23.9197" y2="27.0395">
					<stop  offset="0.2593" style="stop-color:#FFDB6E"/>
					<stop  offset="1" style="stop-color:#FFBC5E"/>
				</linearGradient>
				<path class="st2" d="M23.8,27c0,0.9-0.8,1.7-1.7,1.7c-0.9,0-1.7-0.8-1.7-1.7c0-0.9,0.8-1.7,1.7-1.7C23,25.4,23.8,26.1,23.8,27z"
					/>
			</g>
			<g>
				<g>
					<linearGradient id="SVGID_7_" gradientUnits="userSpaceOnUse" x1="5.5933" y1="11.9711" x2="34.6177" y2="11.9711">
						<stop  offset="0.2593" style="stop-color:#FFDB6E"/>
						<stop  offset="1" style="stop-color:#FFBC5E"/>
					</linearGradient>
					<linearGradient id="SVGID_8_" gradientUnits="userSpaceOnUse" x1="5.4683" y1="11.9711" x2="34.7427" y2="11.9711">
						<stop  offset="0.2593" style="stop-color:#FFDB6E"/>
						<stop  offset="1" style="stop-color:#FFBC5E"/>
					</linearGradient>
					<path class="st3" d="M6,20.1C6,20.1,6,20.1,6,20.1c-0.2,0-0.4-0.2-0.4-0.4c0-0.1,0.1-3,2.6-5.3c2.4-2.1,6.1-3,11-2.5
						c5.4,0.5,9.6-0.3,12.1-2.5c2.1-1.8,2.5-4,2.5-5.1c0-0.2,0.2-0.4,0.4-0.4c0.2,0,0.4,0.2,0.4,0.4c0,1.3-0.5,3.7-2.8,5.8
						c-2.7,2.4-7.1,3.3-12.7,2.8C14.4,12.3,11,13.1,8.8,15c-2.3,2-2.3,4.6-2.3,4.7C6.4,19.9,6.3,20.1,6,20.1z"/>
				</g>
				<linearGradient id="SVGID_9_" gradientUnits="userSpaceOnUse" x1="31.636" y1="4.812" x2="35.6072" y2="4.812">
					<stop  offset="0.2593" style="stop-color:#FFDB6E"/>
					<stop  offset="1" style="stop-color:#FFBC5E"/>
				</linearGradient>
				<linearGradient id="SVGID_10_" gradientUnits="userSpaceOnUse" x1="31.511" y1="4.812" x2="35.7322" y2="4.812">
					<stop  offset="0.2593" style="stop-color:#FFDB6E"/>
					<stop  offset="1" style="stop-color:#FFBC5E"/>
				</linearGradient>
				<rect x="31.6" y="2.8" class="st4" width="4" height="4"/>
				<linearGradient id="SVGID_11_" gradientUnits="userSpaceOnUse" x1="3.2388" y1="19.7" x2="8.8015" y2="19.7">
					<stop  offset="0.2593" style="stop-color:#FFDB6E"/>
					<stop  offset="1" style="stop-color:#FFBC5E"/>
				</linearGradient>
				<linearGradient id="SVGID_12_" gradientUnits="userSpaceOnUse" x1="3.1138" y1="19.7" x2="8.9265" y2="19.7">
					<stop  offset="0.2593" style="stop-color:#FFDB6E"/>
					<stop  offset="1" style="stop-color:#FFBC5E"/>
				</linearGradient>
				<rect x="3.2" y="16.9" class="st5" width="5.6" height="5.6"/>
			</g>
			<g>
				<g>
					<linearGradient id="SVGID_13_" gradientUnits="userSpaceOnUse" x1="13.0008" y1="12.584" x2="32.1711" y2="12.584">
						<stop  offset="0.2593" style="stop-color:#FFDB6E"/>
						<stop  offset="1" style="stop-color:#FFBC5E"/>
					</linearGradient>
					<linearGradient id="SVGID_14_" gradientUnits="userSpaceOnUse" x1="12.8758" y1="12.584" x2="32.2961" y2="12.584">
						<stop  offset="0.2593" style="stop-color:#FFDB6E"/>
						<stop  offset="1" style="stop-color:#FFBC5E"/>
					</linearGradient>
					<path class="st6" d="M32.1,19.2C32.1,19.2,32,19.2,32.1,19.2L13,6.1C13,6.1,13,6,13,6c0,0,0.1-0.1,0.1,0l19,13.1
						C32.2,19.1,32.2,19.2,32.1,19.2C32.1,19.2,32.1,19.2,32.1,19.2z"/>
				</g>
				<g>
					<linearGradient id="SVGID_15_" gradientUnits="userSpaceOnUse" x1="31.0319" y1="19.139" x2="33.1162" y2="19.139">
						<stop  offset="0.2593" style="stop-color:#FFDB6E"/>
						<stop  offset="1" style="stop-color:#FFBC5E"/>
					</linearGradient>
					<linearGradient id="SVGID_16_" gradientUnits="userSpaceOnUse" x1="30.9069" y1="19.139" x2="33.2412" y2="19.139">
						<stop  offset="0.2593" style="stop-color:#FFDB6E"/>
						<stop  offset="1" style="stop-color:#FFBC5E"/>
					</linearGradient>
					<path class="st7" d="M33.1,19.1c0,0.6-0.5,1-1,1c-0.6,0-1-0.5-1-1s0.5-1,1-1C32.6,18.1,33.1,18.6,33.1,19.1z"/>
					<linearGradient id="SVGID_17_" gradientUnits="userSpaceOnUse" x1="12.3143" y1="6.0685" x2="14.3979" y2="6.0685">
						<stop  offset="0.2593" style="stop-color:#FFDB6E"/>
						<stop  offset="1" style="stop-color:#FFBC5E"/>
					</linearGradient>
					<linearGradient id="SVGID_18_" gradientUnits="userSpaceOnUse" x1="12.1893" y1="6.0685" x2="14.5229" y2="6.0685">
						<stop  offset="0.2593" style="stop-color:#FFDB6E"/>
						<stop  offset="1" style="stop-color:#FFBC5E"/>
					</linearGradient>
					<path class="st8" d="M14.4,6.1c0,0.6-0.5,1-1,1c-0.6,0-1-0.5-1-1c0-0.6,0.5-1,1-1C13.9,5,14.4,5.5,14.4,6.1z"/>
				</g>
			</g>
		</g>
		<linearGradient id="SVGID_19_" gradientUnits="userSpaceOnUse" x1="15.1446" y1="38.4459" x2="29.116" y2="38.4459">
			<stop  offset="0.2593" style="stop-color:#FFDB6E"/>
			<stop  offset="1" style="stop-color:#FFBC5E"/>
		</linearGradient>
		<linearGradient id="SVGID_20_" gradientUnits="userSpaceOnUse" x1="15.0196" y1="38.4459" x2="29.241" y2="38.4459">
			<stop  offset="0.2593" style="stop-color:#FFDB6E"/>
			<stop  offset="1" style="stop-color:#FFBC5E"/>
		</linearGradient>
		<rect x="15.1" y="36.9" class="st9" width="14" height="3.1"/>
	</g>
</g>
</svg>
