<?xml version="1.0" encoding="utf-8"?>
<!-- Generator: Adobe Illustrator 24.1.2, SVG Export Plug-In . SVG Version: 6.00 Build 0)  -->
<svg version="1.1" id="Layer_1" xmlns="http://www.w3.org/2000/svg" xmlns:xlink="http://www.w3.org/1999/xlink" x="0px" y="0px"
	 viewBox="0 0 42 32" style="enable-background:new 0 0 42 32;" xml:space="preserve">
<style type="text/css">
	.st0{fill:url(#SVGID_1_);stroke:url(#SVGID_2_);stroke-width:0.25;}
	.st1{fill:url(#SVGID_3_);stroke:url(#SVGID_4_);stroke-width:0.25;}
	.st2{fill:url(#SVGID_5_);stroke:url(#SVGID_6_);stroke-width:0.25;}
	.st3{fill:url(#SVGID_7_);stroke:url(#SVGID_8_);stroke-width:0.25;}
	.st4{fill:url(#SVGID_9_);stroke:url(#SVGID_10_);stroke-width:0.25;}
	.st5{fill:url(#SVGID_11_);stroke:url(#SVGID_12_);stroke-width:0.25;}
	.st6{fill:url(#SVGID_13_);stroke:url(#SVGID_14_);stroke-width:0.25;}
	.st7{fill:url(#SVGID_15_);stroke:url(#SVGID_16_);stroke-width:0.25;}
</style>
<g>
	<g>
		<g>
			<linearGradient id="SVGID_1_" gradientUnits="userSpaceOnUse" x1="5.9935" y1="18.9523" x2="38.48" y2="18.9523">
				<stop  offset="0.2593" style="stop-color:#FFDB6E"/>
				<stop  offset="1" style="stop-color:#FFBC5E"/>
			</linearGradient>
			<linearGradient id="SVGID_2_" gradientUnits="userSpaceOnUse" x1="5.8685" y1="18.9523" x2="38.605" y2="18.9523">
				<stop  offset="0.2593" style="stop-color:#FFDB6E"/>
				<stop  offset="1" style="stop-color:#FFBC5E"/>
			</linearGradient>
			<path class="st0" d="M33.1,31.6H11.4c-1.9,0-5.4-1.1-5.4-5.4V11.7c0-1.9,1.1-5.4,5.4-5.4h11.6c0.3,0,0.6,0.2,0.6,0.6
				c0,0.3-0.2,0.6-0.6,0.6H11.4c-4.2,0-4.3,4.1-4.3,4.3v14.5c0,4.2,4.1,4.3,4.3,4.3h21.7c4.2,0,4.3-4.1,4.3-4.3V11.7
				c0-4.2-4.1-4.3-4.3-4.3h-2.8c-0.3,0-0.6-0.2-0.6-0.6c0-0.3,0.2-0.6,0.6-0.6h2.8c1.9,0,5.4,1.1,5.4,5.4v14.5
				C38.5,28.1,37.4,31.6,33.1,31.6z"/>
		</g>
		<g>
			<linearGradient id="SVGID_3_" gradientUnits="userSpaceOnUse" x1="5.9935" y1="14.1244" x2="38.48" y2="14.1244">
				<stop  offset="0.2593" style="stop-color:#FFDB6E"/>
				<stop  offset="1" style="stop-color:#FFBC5E"/>
			</linearGradient>
			<linearGradient id="SVGID_4_" gradientUnits="userSpaceOnUse" x1="5.8685" y1="14.1244" x2="38.605" y2="14.1244">
				<stop  offset="0.2593" style="stop-color:#FFDB6E"/>
				<stop  offset="1" style="stop-color:#FFBC5E"/>
			</linearGradient>
			<path class="st1" d="M37.9,14.7H6.5c-0.3,0-0.6-0.2-0.6-0.6c0-0.3,0.2-0.6,0.6-0.6h31.4c0.3,0,0.6,0.2,0.6,0.6
				C38.5,14.4,38.2,14.7,37.9,14.7z"/>
		</g>
	</g>
	<g>
		<g>
			<linearGradient id="SVGID_5_" gradientUnits="userSpaceOnUse" x1="13.0936" y1="22.3504" x2="17.8426" y2="22.3504">
				<stop  offset="0.2593" style="stop-color:#FFDB6E"/>
				<stop  offset="1" style="stop-color:#FFBC5E"/>
			</linearGradient>
			<linearGradient id="SVGID_6_" gradientUnits="userSpaceOnUse" x1="12.9686" y1="22.3504" x2="17.9676" y2="22.3504">
				<stop  offset="0.2593" style="stop-color:#FFDB6E"/>
				<stop  offset="1" style="stop-color:#FFBC5E"/>
			</linearGradient>
			<path class="st2" d="M17.3,26.5c-0.1,0-0.3-0.1-0.4-0.2l-3.6-3.6c-0.2-0.2-0.2-0.6,0-0.8l3.6-3.6c0.2-0.2,0.6-0.2,0.8,0
				c0.2,0.2,0.2,0.6,0,0.8l-3.3,3.3l3.3,3.3c0.2,0.2,0.2,0.6,0,0.8C17.6,26.5,17.4,26.5,17.3,26.5z"/>
		</g>
		<g>
			<linearGradient id="SVGID_7_" gradientUnits="userSpaceOnUse" x1="26.631" y1="22.3504" x2="31.38" y2="22.3504">
				<stop  offset="0.2593" style="stop-color:#FFDB6E"/>
				<stop  offset="1" style="stop-color:#FFBC5E"/>
			</linearGradient>
			<linearGradient id="SVGID_8_" gradientUnits="userSpaceOnUse" x1="26.506" y1="22.3504" x2="31.505" y2="22.3504">
				<stop  offset="0.2593" style="stop-color:#FFDB6E"/>
				<stop  offset="1" style="stop-color:#FFBC5E"/>
			</linearGradient>
			<path class="st3" d="M27.2,26.5c-0.1,0-0.3-0.1-0.4-0.2c-0.2-0.2-0.2-0.6,0-0.8l3.3-3.3l-3.3-3.3c-0.2-0.2-0.2-0.6,0-0.8
				c0.2-0.2,0.6-0.2,0.8,0l3.6,3.6c0.2,0.2,0.2,0.6,0,0.8l-3.6,3.6C27.5,26.5,27.3,26.5,27.2,26.5z"/>
		</g>
		<g>
			<linearGradient id="SVGID_9_" gradientUnits="userSpaceOnUse" x1="20.0765" y1="22.3502" x2="24.8259" y2="22.3502">
				<stop  offset="0.2593" style="stop-color:#FFDB6E"/>
				<stop  offset="1" style="stop-color:#FFBC5E"/>
			</linearGradient>
			<linearGradient id="SVGID_10_" gradientUnits="userSpaceOnUse" x1="19.9515" y1="22.3502" x2="24.9509" y2="22.3502">
				<stop  offset="0.2593" style="stop-color:#FFDB6E"/>
				<stop  offset="1" style="stop-color:#FFBC5E"/>
			</linearGradient>
			<path class="st4" d="M20.6,26.5c-0.1,0-0.2,0-0.2-0.1c-0.3-0.1-0.4-0.5-0.2-0.7l3.6-7.3c0.1-0.3,0.5-0.4,0.7-0.2
				c0.3,0.1,0.4,0.5,0.2,0.7l-3.6,7.3C21,26.4,20.8,26.5,20.6,26.5z"/>
		</g>
	</g>
	<g>
		<linearGradient id="SVGID_11_" gradientUnits="userSpaceOnUse" x1="24.7374" y1="6.8825" x2="28.4858" y2="6.8825">
			<stop  offset="0.2593" style="stop-color:#FFDB6E"/>
			<stop  offset="1" style="stop-color:#FFBC5E"/>
		</linearGradient>
		<linearGradient id="SVGID_12_" gradientUnits="userSpaceOnUse" x1="24.6124" y1="6.8825" x2="28.6108" y2="6.8825">
			<stop  offset="0.2593" style="stop-color:#FFDB6E"/>
			<stop  offset="1" style="stop-color:#FFBC5E"/>
		</linearGradient>
		<rect x="24.7" y="5" class="st5" width="3.7" height="3.7"/>
	</g>
	<g>
		<linearGradient id="SVGID_13_" gradientUnits="userSpaceOnUse" x1="28.9475" y1="3.134" x2="31.7726" y2="3.134">
			<stop  offset="0.2593" style="stop-color:#FFDB6E"/>
			<stop  offset="1" style="stop-color:#FFBC5E"/>
		</linearGradient>
		<linearGradient id="SVGID_14_" gradientUnits="userSpaceOnUse" x1="28.8225" y1="3.134" x2="31.8976" y2="3.134">
			<stop  offset="0.2593" style="stop-color:#FFDB6E"/>
			<stop  offset="1" style="stop-color:#FFBC5E"/>
		</linearGradient>
		<rect x="28.9" y="1.7" class="st6" width="2.8" height="2.8"/>
	</g>
	<g>
		<linearGradient id="SVGID_15_" gradientUnits="userSpaceOnUse" x1="25.8669" y1="1.5479" x2="28.1119" y2="1.5479">
			<stop  offset="0.2593" style="stop-color:#FFDB6E"/>
			<stop  offset="1" style="stop-color:#FFBC5E"/>
		</linearGradient>
		<linearGradient id="SVGID_16_" gradientUnits="userSpaceOnUse" x1="25.7419" y1="1.5479" x2="28.2369" y2="1.5479">
			<stop  offset="0.2593" style="stop-color:#FFDB6E"/>
			<stop  offset="1" style="stop-color:#FFBC5E"/>
		</linearGradient>
		<rect x="25.9" y="0.4" class="st7" width="2.2" height="2.2"/>
	</g>
</g>
</svg>
