<?xml version="1.0" encoding="utf-8"?>
<!-- Generator: Adobe Illustrator 24.1.2, SVG Export Plug-In . SVG Version: 6.00 Build 0)  -->
<svg version="1.1" id="Layer_1" xmlns="http://www.w3.org/2000/svg" xmlns:xlink="http://www.w3.org/1999/xlink" x="0px" y="0px"
	 viewBox="0 0 42 42" style="enable-background:new 0 0 42 42;" xml:space="preserve">
<style type="text/css">
	.st0{fill:url(#SVGID_1_);stroke:url(#SVGID_2_);stroke-width:0.25;}
	.st1{fill:url(#SVGID_3_);stroke:url(#SVGID_4_);stroke-width:0.25;}
	.st2{fill:url(#SVGID_5_);stroke:url(#SVGID_6_);stroke-width:0.25;}
	.st3{fill:url(#SVGID_7_);stroke:url(#SVGID_8_);stroke-width:0.25;}
	.st4{fill:url(#SVGID_9_);stroke:url(#SVGID_10_);stroke-width:0.25;}
	.st5{fill:url(#SVGID_11_);stroke:url(#SVGID_12_);stroke-width:0.25;}
</style>
<g>
	<linearGradient id="SVGID_1_" gradientUnits="userSpaceOnUse" x1="4.8938" y1="-0.3206" x2="45.1408" y2="35.8564">
		<stop  offset="0.2593" style="stop-color:#FFDB6E"/>
		<stop  offset="1" style="stop-color:#FFBC5E"/>
	</linearGradient>
	<linearGradient id="SVGID_2_" gradientUnits="userSpaceOnUse" x1="7.3609" y1="6.4473" x2="17.4853" y2="6.4473">
		<stop  offset="0.2593" style="stop-color:#FFDB6E"/>
		<stop  offset="1" style="stop-color:#FFBC5E"/>
	</linearGradient>
	<polygon class="st0" points="17.2,9.5 13,3.4 7.6,3.4 11.8,9.5 	"/>
	<linearGradient id="SVGID_3_" gradientUnits="userSpaceOnUse" x1="1.0617" y1="3.9426" x2="41.3088" y2="40.1197">
		<stop  offset="0.2593" style="stop-color:#FFDB6E"/>
		<stop  offset="1" style="stop-color:#FFBC5E"/>
	</linearGradient>
	<linearGradient id="SVGID_4_" gradientUnits="userSpaceOnUse" x1="3.2665" y1="6.7743" x2="9.0578" y2="6.7743">
		<stop  offset="0.2593" style="stop-color:#FFDB6E"/>
		<stop  offset="1" style="stop-color:#FFBC5E"/>
	</linearGradient>
	<path class="st1" d="M3.4,9.5h5.4L5.1,4.1C4.1,4.8,3.4,6,3.4,7.3L3.4,9.5L3.4,9.5z"/>
	<linearGradient id="SVGID_5_" gradientUnits="userSpaceOnUse" x1="12.4262" y1="-8.7005" x2="52.6733" y2="27.4766">
		<stop  offset="0.2593" style="stop-color:#FFDB6E"/>
		<stop  offset="1" style="stop-color:#FFBC5E"/>
	</linearGradient>
	<linearGradient id="SVGID_6_" gradientUnits="userSpaceOnUse" x1="24.2159" y1="6.4473" x2="34.3403" y2="6.4473">
		<stop  offset="0.2593" style="stop-color:#FFDB6E"/>
		<stop  offset="1" style="stop-color:#FFBC5E"/>
	</linearGradient>
	<polygon class="st2" points="34.1,9.5 29.9,3.4 24.5,3.4 28.7,9.5 	"/>
	<linearGradient id="SVGID_7_" gradientUnits="userSpaceOnUse" x1="8.66" y1="-4.5106" x2="48.9071" y2="31.6665">
		<stop  offset="0.2593" style="stop-color:#FFDB6E"/>
		<stop  offset="1" style="stop-color:#FFBC5E"/>
	</linearGradient>
	<linearGradient id="SVGID_8_" gradientUnits="userSpaceOnUse" x1="15.7884" y1="6.4473" x2="25.9128" y2="6.4473">
		<stop  offset="0.2593" style="stop-color:#FFDB6E"/>
		<stop  offset="1" style="stop-color:#FFBC5E"/>
	</linearGradient>
	<polygon class="st3" points="25.7,9.5 21.4,3.4 16,3.4 20.3,9.5 	"/>
	<linearGradient id="SVGID_9_" gradientUnits="userSpaceOnUse" x1="15.7242" y1="-12.3694" x2="55.9712" y2="23.8077">
		<stop  offset="0.2593" style="stop-color:#FFDB6E"/>
		<stop  offset="1" style="stop-color:#FFBC5E"/>
	</linearGradient>
	<linearGradient id="SVGID_10_" gradientUnits="userSpaceOnUse" x1="32.6434" y1="6.4473" x2="38.7335" y2="6.4473">
		<stop  offset="0.2593" style="stop-color:#FFDB6E"/>
		<stop  offset="1" style="stop-color:#FFBC5E"/>
	</linearGradient>
	<path class="st4" d="M38.6,9.5V7.3c0-2.2-1.8-3.9-3.9-3.9h-1.8l4.2,6.1H38.6z"/>
	<linearGradient id="SVGID_11_" gradientUnits="userSpaceOnUse" x1="1.1183" y1="4.2682" x2="39.1416" y2="42.2915">
		<stop  offset="0.2593" style="stop-color:#FFDB6E"/>
		<stop  offset="1" style="stop-color:#FFBC5E"/>
	</linearGradient>
	<linearGradient id="SVGID_12_" gradientUnits="userSpaceOnUse" x1="3.2665" y1="25.2959" x2="38.7335" y2="25.2959">
		<stop  offset="0.2593" style="stop-color:#FFDB6E"/>
		<stop  offset="1" style="stop-color:#FFBC5E"/>
	</linearGradient>
	<path class="st5" d="M3.4,12v22.7c0,2.2,1.8,3.9,3.9,3.9h27.4c2.2,0,3.9-1.8,3.9-3.9V12H3.4z M25.8,26.3L19,30.2
		c-0.8,0.4-1.7-0.1-1.7-1v-7.8c0-0.9,1-1.5,1.7-1l6.8,3.9C26.6,24.7,26.6,25.9,25.8,26.3z"/>
</g>
</svg>
