<?xml version="1.0" encoding="utf-8"?>
<!-- Generator: Adobe Illustrator 24.1.2, SVG Export Plug-In . SVG Version: 6.00 Build 0)  -->
<svg version="1.1" id="Layer_1" xmlns="http://www.w3.org/2000/svg" xmlns:xlink="http://www.w3.org/1999/xlink" x="0px" y="0px"
	 viewBox="0 0 185 185" style="enable-background:new 0 0 185 185;" xml:space="preserve">
<style type="text/css">
	.st0{fill-opacity:0.86;}
	.st1{fill:url(#SVGID_1_);}
	.st2{fill:url(#SVGID_2_);}
</style>
<path class="st0" d="M142.4,122.6h-0.3H142.4z M142.2,122.6H142H142.2z"/>
<g id="Layer_2_1_">
	<g id="_6_1_">
		<g id="انكليزي_1_">
			<g>
				
					<linearGradient id="SVGID_1_" gradientUnits="userSpaceOnUse" x1="64.0673" y1="73.2009" x2="138.3156" y2="73.2009" gradientTransform="matrix(1 0 0 -1 0 186)">
					<stop  offset="0" style="stop-color:#FFDB6E"/>
					<stop  offset="1" style="stop-color:#FFBC5E"/>
				</linearGradient>
				<path class="st1" d="M115,52c14.7,27.2,23.2,43.6,23.2,43.6s-41.6,52.2-62.7,77.9C71.4,168.7,64,159,64,159S92.6,98.4,115,52z"
					/>
				
					<linearGradient id="SVGID_2_" gradientUnits="userSpaceOnUse" x1="40.6827" y1="113.8672" x2="114.7342" y2="113.8672" gradientTransform="matrix(1 0 0 -1 0 186)">
					<stop  offset="0" style="stop-color:#FFDB6E"/>
					<stop  offset="1" style="stop-color:#FFBC5E"/>
				</linearGradient>
				<path class="st2" d="M64,132.8c-14.8-27.2-23.2-43.6-23.2-43.6s41.3-52,62.4-77.8c4.1,4.9,11.6,14.6,11.6,14.6
					S86.3,86.6,64,132.8z"/>
			</g>
		</g>
	</g>
</g>
</svg>
