<?xml version="1.0" encoding="utf-8"?>
<!-- Generator: Adobe Illustrator 24.1.2, SVG Export Plug-In . SVG Version: 6.00 Build 0)  -->
<svg version="1.1" id="Layer_1" xmlns="http://www.w3.org/2000/svg" xmlns:xlink="http://www.w3.org/1999/xlink" x="0px" y="0px"
	 viewBox="0 0 185 185" style="enable-background:new 0 0 185 185;" xml:space="preserve">
<style type="text/css">
	.st0{fill-opacity:0.86;}
	.st1{fill:url(#SVGID_1_);}
	.st2{fill:url(#SVGID_2_);}
</style>
<path class="st0" d="M115,122.7h-0.3H115z M114.8,122.7L114.8,122.7L114.8,122.7z"/>
<g id="Layer_2_00000069366907570620448420000000768232319584950448_">
	<g id="_6">
		<g id="انكليزي">
			<g>
				<linearGradient id="SVGID_1_" gradientUnits="userSpaceOnUse" x1="68.6" y1="111.65" x2="138.4" y2="111.65">
					<stop  offset="0" style="stop-color:#FFDB6E"/>
					<stop  offset="1" style="stop-color:#FFBC5E"/>
				</linearGradient>
				<path class="st1" d="M116.6,54.5c13.9,25.7,21.8,41,21.8,41s-39,49.1-59,73.3c-3.8-4.6-10.8-13.7-10.8-13.7S95.4,98,116.6,54.5z
					"/>
				<linearGradient id="SVGID_2_" gradientUnits="userSpaceOnUse" x1="46.6" y1="73.35" x2="116.2" y2="73.35">
					<stop  offset="0" style="stop-color:#FFDB6E"/>
					<stop  offset="1" style="stop-color:#FFBC5E"/>
				</linearGradient>
				<path class="st2" d="M68.4,130.5c-14-25.7-21.8-41-21.8-41s38.9-49.1,58.8-73.3c3.8,4.6,10.8,13.7,10.8,13.7S89.5,87,68.4,130.5
					z"/>
			</g>
		</g>
	</g>
</g>
</svg>
