<svg xmlns="http://www.w3.org/2000/svg" viewBox="0 0 472.83 447.43">
  <defs>
    <style>
      .cls-1, .cls-4, .cls-8 {
        fill: #92e3a9;
      }

      .cls-2, .cls-6 {
        fill: #fff;
      }

      .cls-2 {
        opacity: 0.7;
      }

      .cls-3, .cls-5, .cls-7, .cls-9 {
        fill: none;
      }

      .cls-10, .cls-11, .cls-13, .cls-14, .cls-15, .cls-16, .cls-3, .cls-4, .cls-5, .cls-6, .cls-7, .cls-8, .cls-9 {
        stroke: #263238;
      }

      .cls-11, .cls-13, .cls-14, .cls-15, .cls-16, .cls-3, .cls-4, .cls-5, .cls-6 {
        stroke-linecap: round;
        stroke-linejoin: round;
      }

      .cls-5, .cls-9 {
        stroke-width: 0.5px;
      }

      .cls-10, .cls-7, .cls-8, .cls-9 {
        stroke-miterlimit: 10;
      }

      .cls-7 {
        stroke-width: 2px;
      }

      .cls-10, .cls-12, .cls-15 {
        fill: #263238;
      }

      .cls-11 {
        fill: #7d7d7d;
      }

      .cls-13 {
        fill: #595959;
      }

      .cls-14 {
        fill: #a8a8a8;
      }

      .cls-16 {
        fill: #9c9c9c;
      }
    </style>
  </defs>
  <g id="Background_Simple" data-name="Background Simple">
    <g>
      <path class="cls-1" d="M461,208.15S397,52,280,21.89s-166.07,62-184,126S12,296.44,18,354.58c5.7,55.26,54.13,81.39,99.36,92.61,57.49,14.25,122.82,15.33,180.52,3.45a372.84,372.84,0,0,0,40.57-11c27.11-8.84,53.72-15.69,81.18-23,52.24-13.93,72.94-70,67.05-123.74C483.36,262.69,472.29,235.65,461,208.15Z" transform="translate(-17.62 -16)"/>
      <path class="cls-2" d="M461,208.15S397,52,280,21.89s-166.07,62-184,126S12,296.44,18,354.58c5.7,55.26,54.13,81.39,99.36,92.61,57.49,14.25,122.82,15.33,180.52,3.45a372.84,372.84,0,0,0,40.57-11c27.11-8.84,53.72-15.69,81.18-23,52.24-13.93,72.94-70,67.05-123.74C483.36,262.69,472.29,235.65,461,208.15Z" transform="translate(-17.62 -16)"/>
    </g>
  </g>
  <g id="Window">
    <g>
      <rect class="cls-3" x="222.64" y="21.21" width="185.5" height="256.84"/>
      <line class="cls-3" x1="315.39" y1="21.36" x2="315.39" y2="278.95"/>
      <line class="cls-3" x1="408.29" y1="150.16" x2="222.48" y2="150.16"/>
      <line class="cls-3" x1="408.29" y1="85.66" x2="222.48" y2="85.66"/>
      <line class="cls-3" x1="408.29" y1="214.66" x2="222.48" y2="214.66"/>
      <g>
        <line class="cls-3" x1="374.48" y1="115.43" x2="356.4" y2="132.81"/>
        <line class="cls-3" x1="401.37" y1="89.57" x2="379.77" y2="110.34"/>
        <line class="cls-3" x1="355.09" y1="124.53" x2="349.35" y2="130.05"/>
        <line class="cls-3" x1="379.75" y1="100.81" x2="359.05" y2="120.72"/>
      </g>
      <g>
        <line class="cls-3" x1="274.16" y1="56.62" x2="256.08" y2="74"/>
        <line class="cls-3" x1="301.05" y1="30.76" x2="279.45" y2="51.54"/>
        <line class="cls-3" x1="254.77" y1="65.72" x2="249.03" y2="71.24"/>
        <line class="cls-3" x1="279.43" y1="42.01" x2="258.73" y2="61.91"/>
      </g>
      <g>
        <line class="cls-3" x1="370.16" y1="183.75" x2="352.08" y2="201.13"/>
        <line class="cls-3" x1="397.05" y1="157.89" x2="375.45" y2="178.67"/>
        <line class="cls-3" x1="350.77" y1="192.85" x2="345.03" y2="198.37"/>
        <line class="cls-3" x1="375.43" y1="169.14" x2="354.72" y2="189.04"/>
      </g>
    </g>
  </g>
  <g id="Plants_2" data-name="Plants 2">
    <g>
      <g>
        <path class="cls-4" d="M395.93,269.85l-.78-6.68s-3.55.2-4.92-2.89c-.83-1.87-1.67-5.66-.45-7.53a3.52,3.52,0,0,1,6.39.86c.95,2.71,1.42,3.87,1.42,3.87-.23-3.93-3.19-19.76,5.72-17.35,3.62,1,4.61,4.48,4.77,7.24s-.21,9.91-.21,9.91,2.39.26,2.55-3.71,4-5.77,5.71-3.89,2.48,8.56.62,10.65-7.75,2.82-7.75,2.82l.39,6.71Z" transform="translate(-17.62 -16)"/>
        <path class="cls-5" d="M401.05,241.23s-1.47,1.34-1.07,5.9.4,12.72.4,12.72" transform="translate(-17.62 -16)"/>
        <path class="cls-5" d="M404.94,244.31s1.74-.26,1.2,3.89a62.58,62.58,0,0,0,0,10.44" transform="translate(-17.62 -16)"/>
        <path class="cls-5" d="M392.34,253.15s-1.74.4-.93,3.22,1.07,4.95,2.94,5.36a14.77,14.77,0,0,0,2.55.4l.27,2.94" transform="translate(-17.62 -16)"/>
        <path class="cls-5" d="M409.22,261.59s5.49.14,6.56-2.14.41-6.16.41-6.16" transform="translate(-17.62 -16)"/>
        <path class="cls-5" d="M394.62,253.89a.47.47,0,1,1-.47-.47A.47.47,0,0,1,394.62,253.89Z" transform="translate(-17.62 -16)"/>
        <circle class="cls-5" cx="378.14" cy="243.31" r="0.47"/>
        <circle class="cls-5" cx="375.8" cy="241.1" r="0.47"/>
        <circle class="cls-5" cx="385.31" cy="235.55" r="0.47"/>
        <circle class="cls-5" cx="380.89" cy="230.99" r="0.47"/>
        <path class="cls-5" d="M404.94,263.33a.47.47,0,1,1-.47-.47A.47.47,0,0,1,404.94,263.33Z" transform="translate(-17.62 -16)"/>
        <path class="cls-5" d="M399.85,262.66a.47.47,0,1,1-.47-.47A.47.47,0,0,1,399.85,262.66Z" transform="translate(-17.62 -16)"/>
        <circle class="cls-5" cx="386.11" cy="226.71" r="0.47"/>
        <path class="cls-5" d="M413.71,251.61a.47.47,0,1,1-.47-.47A.47.47,0,0,1,413.71,251.61Z" transform="translate(-17.62 -16)"/>
        <circle class="cls-5" cx="394.42" cy="241.98" r="0.47"/>
        <circle class="cls-5" cx="386.11" cy="241.84" r="0.47"/>
      </g>
      <polygon class="cls-6" points="396.79 249.52 372.68 249.52 375.1 269.28 394.38 269.28 396.79 249.52"/>
    </g>
  </g>
  <g id="Plants_1" data-name="Plants 1">
    <g>
      <g>
        <line class="cls-7" x1="38.03" y1="213.09" x2="56.48" y2="389.82"/>
        <g>
          <g>
            <line class="cls-7" x1="53.51" y1="356" x2="45.15" y2="347.17"/>
            <path class="cls-8" d="M65.3,365.81A9.46,9.46,0,0,0,62,358.72c-2.14-1.92-13.44-6.67-14.51-2.69C46.29,360.36,57.86,368.86,65.3,365.81Z" transform="translate(-17.62 -16)"/>
            <line class="cls-9" x1="47.69" y1="349.81" x2="36.93" y2="343.11"/>
          </g>
          <g>
            <line class="cls-7" x1="55.6" y1="376.1" x2="47.24" y2="367.27"/>
            <path class="cls-8" d="M67.4,385.91a9.46,9.46,0,0,0-3.33-7.09c-2.14-1.92-13.44-6.67-14.51-2.69C48.39,380.46,60,389,67.4,385.91Z" transform="translate(-17.62 -16)"/>
            <line class="cls-9" x1="49.78" y1="369.91" x2="39.03" y2="363.21"/>
          </g>
          <g>
            <line class="cls-7" x1="48.39" y1="306.95" x2="40.03" y2="298.12"/>
            <path class="cls-8" d="M60.18,316.77a9.49,9.49,0,0,0-3.32-7.1C54.71,307.76,43.41,303,42.34,307,41.18,311.31,52.74,319.81,60.18,316.77Z" transform="translate(-17.62 -16)"/>
            <line class="cls-9" x1="42.57" y1="300.77" x2="31.81" y2="294.07"/>
          </g>
          <g>
            <line class="cls-7" x1="50.49" y1="327.05" x2="42.12" y2="318.22"/>
            <path class="cls-8" d="M62.28,336.87a9.48,9.48,0,0,0-3.33-7.1c-2.14-1.91-13.44-6.66-14.51-2.69C43.27,331.41,54.83,339.91,62.28,336.87Z" transform="translate(-17.62 -16)"/>
            <line class="cls-9" x1="44.66" y1="320.87" x2="33.91" y2="314.17"/>
          </g>
          <g>
            <line class="cls-7" x1="44.98" y1="274.3" x2="36.62" y2="265.47"/>
            <path class="cls-8" d="M56.78,284.12a9.52,9.52,0,0,0-3.33-7.1c-2.15-1.91-13.44-6.67-14.52-2.69C37.77,278.66,49.33,287.16,56.78,284.12Z" transform="translate(-17.62 -16)"/>
            <line class="cls-9" x1="39.16" y1="268.12" x2="28.41" y2="261.42"/>
          </g>
          <g>
            <line class="cls-7" x1="41.56" y1="241.51" x2="33.2" y2="232.68"/>
            <path class="cls-8" d="M53.35,251.32A9.47,9.47,0,0,0,50,244.23c-2.15-1.92-13.45-6.67-14.52-2.69C34.35,245.87,45.91,254.36,53.35,251.32Z" transform="translate(-17.62 -16)"/>
            <line class="cls-9" x1="35.74" y1="235.32" x2="24.98" y2="228.62"/>
          </g>
          <g>
            <line class="cls-7" x1="52.1" y1="344.11" x2="58.46" y2="333.74"/>
            <path class="cls-8" d="M74.14,352.85a9.46,9.46,0,0,1,1.79-7.62c1.7-2.32,11.77-9.3,13.64-5.63C91.61,343.59,82.05,354.29,74.14,352.85Z" transform="translate(-17.62 -16)"/>
            <line class="cls-9" x1="56.52" y1="336.85" x2="66.2" y2="327.6"/>
          </g>
          <g>
            <line class="cls-7" x1="46.58" y1="291.21" x2="52.94" y2="280.85"/>
            <path class="cls-8" d="M68.62,300a9.48,9.48,0,0,1,1.79-7.63c1.7-2.32,11.77-9.3,13.64-5.63C86.09,290.7,76.53,301.4,68.62,300Z" transform="translate(-17.62 -16)"/>
            <line class="cls-9" x1="51" y1="283.96" x2="60.68" y2="274.71"/>
          </g>
          <g>
            <line class="cls-7" x1="44.16" y1="267.97" x2="50.51" y2="257.6"/>
            <path class="cls-8" d="M66.19,276.72A9.48,9.48,0,0,1,68,269.09c1.71-2.32,11.78-9.3,13.65-5.63C83.66,267.45,74.1,278.15,66.19,276.72Z" transform="translate(-17.62 -16)"/>
            <line class="cls-9" x1="48.57" y1="260.72" x2="58.26" y2="251.46"/>
          </g>
          <g>
            <line class="cls-7" x1="40.6" y1="233.89" x2="46.96" y2="223.53"/>
            <path class="cls-8" d="M62.63,242.64a9.47,9.47,0,0,1,1.8-7.63c1.7-2.32,11.77-9.3,13.64-5.63C80.1,233.38,70.55,244.08,62.63,242.64Z" transform="translate(-17.62 -16)"/>
            <line class="cls-9" x1="45.02" y1="226.64" x2="54.7" y2="217.38"/>
            <path class="cls-8" d="M55.5,228.11a9.48,9.48,0,0,1,1.79-7.63c1.7-2.32,11.77-9.3,13.64-5.63C73,218.84,63.41,229.54,55.5,228.11Z" transform="translate(-17.62 -16)"/>
            <line class="cls-9" x1="37.88" y1="212.11" x2="47.56" y2="202.85"/>
            <path class="cls-8" d="M56.06,228.51a9.51,9.51,0,0,1-7.4-2.59c-2.13-1.93-8-12.68-4.17-14.16C48.68,210.16,58.32,220.79,56.06,228.51Z" transform="translate(-17.62 -16)"/>
            <line class="cls-9" x1="38.44" y1="212.51" x2="30.25" y2="201.91"/>
          </g>
        </g>
      </g>
      <g>
        <line class="cls-7" x1="86.68" y1="237.43" x2="68.34" y2="414.17"/>
        <g>
          <g>
            <line class="cls-7" x1="72.4" y1="380.46" x2="66.03" y2="370.1"/>
            <path class="cls-8" d="M85.59,389.21a9.47,9.47,0,0,0-1.8-7.63c-1.7-2.31-11.78-9.29-13.64-5.62C68.11,380,77.68,390.65,85.59,389.21Z" transform="translate(-17.62 -16)"/>
            <line class="cls-9" x1="67.97" y1="373.21" x2="58.83" y2="364.44"/>
          </g>
          <g>
            <line class="cls-7" x1="77.49" y1="331.41" x2="71.12" y2="321.05"/>
            <path class="cls-8" d="M90.68,340.16a9.47,9.47,0,0,0-1.8-7.63c-1.7-2.31-11.78-9.29-13.64-5.62C73.2,330.91,82.77,341.6,90.68,340.16Z" transform="translate(-17.62 -16)"/>
            <line class="cls-9" x1="73.06" y1="324.16" x2="63.92" y2="315.39"/>
          </g>
          <g>
            <line class="cls-7" x1="75.4" y1="351.51" x2="69.04" y2="341.15"/>
            <path class="cls-8" d="M88.59,360.26a9.46,9.46,0,0,0-1.79-7.62c-1.71-2.32-11.78-9.3-13.65-5.63C71.12,351,80.68,361.7,88.59,360.26Z" transform="translate(-17.62 -16)"/>
            <line class="cls-9" x1="70.98" y1="344.26" x2="61.84" y2="335.49"/>
          </g>
          <g>
            <line class="cls-7" x1="80.88" y1="298.76" x2="74.51" y2="288.4"/>
            <path class="cls-8" d="M94.07,307.51a9.46,9.46,0,0,0-1.8-7.63c-1.7-2.32-11.78-9.29-13.65-5.62C76.59,298.25,86.16,309,94.07,307.51Z" transform="translate(-17.62 -16)"/>
            <line class="cls-9" x1="76.45" y1="291.51" x2="67.31" y2="282.74"/>
          </g>
          <g>
            <line class="cls-7" x1="84.28" y1="265.96" x2="77.91" y2="255.6"/>
            <path class="cls-8" d="M97.47,274.71a9.46,9.46,0,0,0-1.79-7.62c-1.71-2.32-11.79-9.3-13.65-5.62C80,265.46,89.56,276.16,97.47,274.71Z" transform="translate(-17.62 -16)"/>
            <line class="cls-9" x1="79.86" y1="258.71" x2="70.71" y2="249.94"/>
          </g>
          <g>
            <line class="cls-7" x1="73.47" y1="368.53" x2="81.83" y2="359.7"/>
            <path class="cls-8" d="M96.9,378.35a9.48,9.48,0,0,1,3.33-7.1c2.14-1.92,13.44-6.67,14.51-2.7C115.91,372.88,104.35,381.38,96.9,378.35Z" transform="translate(-17.62 -16)"/>
            <line class="cls-9" x1="79.29" y1="362.35" x2="90.67" y2="355.28"/>
          </g>
          <g>
            <line class="cls-7" x1="78.96" y1="315.64" x2="87.32" y2="306.8"/>
            <path class="cls-8" d="M102.39,325.45a9.45,9.45,0,0,1,3.33-7.09c2.14-1.92,13.43-6.68,14.51-2.7C121.4,320,109.84,328.49,102.39,325.45Z" transform="translate(-17.62 -16)"/>
            <line class="cls-9" x1="84.78" y1="309.45" x2="96.16" y2="302.39"/>
          </g>
          <g>
            <line class="cls-7" x1="81.37" y1="292.39" x2="89.73" y2="283.56"/>
            <path class="cls-8" d="M104.81,302.2a9.43,9.43,0,0,1,3.32-7.09c2.14-1.92,13.44-6.68,14.51-2.7C123.81,296.74,112.25,305.24,104.81,302.2Z" transform="translate(-17.62 -16)"/>
            <line class="cls-9" x1="87.19" y1="286.2" x2="98.57" y2="279.14"/>
          </g>
          <g>
            <line class="cls-7" x1="84.91" y1="258.31" x2="93.26" y2="249.48"/>
            <path class="cls-8" d="M108.34,268.13a9.48,9.48,0,0,1,3.33-7.1c2.14-1.92,13.43-6.68,14.51-2.7C127.35,262.66,115.79,271.16,108.34,268.13Z" transform="translate(-17.62 -16)"/>
            <line class="cls-9" x1="90.73" y1="252.13" x2="102.11" y2="245.06"/>
            <path class="cls-8" d="M104.35,252.43a9.47,9.47,0,0,1,3.32-7.09c2.15-1.92,13.44-6.68,14.51-2.7C123.35,247,111.8,255.47,104.35,252.43Z" transform="translate(-17.62 -16)"/>
            <line class="cls-9" x1="86.73" y1="236.43" x2="98.11" y2="229.37"/>
            <path class="cls-8" d="M104.82,252.94a9.48,9.48,0,0,1-6.71-4.05c-1.68-2.33-5.23-14.06-1.16-14.71C101.37,233.47,108.62,245.85,104.82,252.94Z" transform="translate(-17.62 -16)"/>
            <line class="cls-9" x1="87.2" y1="236.94" x2="81.37" y2="224.88"/>
          </g>
        </g>
      </g>
      <line class="cls-7" x1="65.67" y1="165.46" x2="65.67" y2="388.96"/>
      <g>
        <g>
          <line class="cls-7" x1="65.84" y1="355.36" x2="58.44" y2="345.7"/>
          <path class="cls-8" d="M78.31,364.6a9.45,9.45,0,0,0-2.57-7.4c-1.94-2.13-12.68-8-14.16-4.18C60,357.2,70.59,366.85,78.31,364.6Z" transform="translate(-17.62 -16)"/>
          <line class="cls-9" x1="60.7" y1="348.6" x2="50.7" y2="340.82"/>
        </g>
        <g>
          <line class="cls-7" x1="65.84" y1="313.35" x2="58.44" y2="303.7"/>
          <path class="cls-8" d="M78.31,322.6a9.45,9.45,0,0,0-2.57-7.4c-1.94-2.13-12.68-8-14.16-4.19C60,315.2,70.59,324.85,78.31,322.6Z" transform="translate(-17.62 -16)"/>
          <line class="cls-9" x1="60.7" y1="306.6" x2="50.7" y2="298.82"/>
        </g>
        <g>
          <line class="cls-7" x1="65.84" y1="264.04" x2="58.44" y2="254.39"/>
          <path class="cls-8" d="M78.31,273.28a9.45,9.45,0,0,0-2.57-7.4c-1.94-2.13-12.68-8-14.16-4.18C60,265.88,70.59,275.53,78.31,273.28Z" transform="translate(-17.62 -16)"/>
          <line class="cls-9" x1="60.7" y1="257.28" x2="50.7" y2="249.5"/>
        </g>
        <g>
          <line class="cls-7" x1="65.84" y1="231.21" x2="58.44" y2="221.56"/>
          <path class="cls-8" d="M78.31,240.45a9.42,9.42,0,0,0-2.57-7.39c-1.94-2.13-12.68-8-14.16-4.19C60,233.06,70.59,242.71,78.31,240.45Z" transform="translate(-17.62 -16)"/>
          <line class="cls-9" x1="60.7" y1="224.45" x2="50.7" y2="216.67"/>
        </g>
        <g>
          <line class="cls-7" x1="65.84" y1="198.24" x2="58.44" y2="188.59"/>
          <path class="cls-8" d="M78.31,207.48a9.45,9.45,0,0,0-2.57-7.4c-1.94-2.13-12.68-8-14.16-4.18C60,200.08,70.59,209.74,78.31,207.48Z" transform="translate(-17.62 -16)"/>
          <line class="cls-9" x1="60.7" y1="191.48" x2="50.7" y2="183.7"/>
        </g>
        <g>
          <line class="cls-7" x1="65.68" y1="368.18" x2="73.08" y2="358.53"/>
          <path class="cls-8" d="M88.44,377.42A9.45,9.45,0,0,1,91,370c1.93-2.13,12.67-8,14.15-4.19C106.78,370,96.16,379.68,88.44,377.42Z" transform="translate(-17.62 -16)"/>
          <line class="cls-9" x1="70.83" y1="361.43" x2="81.42" y2="353.23"/>
        </g>
        <g>
          <line class="cls-7" x1="65.68" y1="301.38" x2="73.08" y2="291.73"/>
          <path class="cls-8" d="M88.44,310.62a9.48,9.48,0,0,1,2.58-7.4c1.93-2.13,12.67-8,14.15-4.18C106.78,303.22,96.16,312.87,88.44,310.62Z" transform="translate(-17.62 -16)"/>
          <line class="cls-9" x1="70.83" y1="294.62" x2="81.42" y2="286.42"/>
        </g>
        <g>
          <line class="cls-7" x1="65.68" y1="268.41" x2="73.08" y2="258.76"/>
          <path class="cls-8" d="M88.44,277.65a9.48,9.48,0,0,1,2.58-7.4c1.93-2.13,12.67-8,14.15-4.18C106.78,270.25,96.16,279.9,88.44,277.65Z" transform="translate(-17.62 -16)"/>
          <line class="cls-9" x1="70.83" y1="261.65" x2="81.42" y2="253.45"/>
        </g>
        <g>
          <line class="cls-7" x1="65.68" y1="224.83" x2="73.08" y2="215.18"/>
          <path class="cls-8" d="M88.44,234.07a9.48,9.48,0,0,1,2.58-7.4c1.93-2.13,12.67-8,14.15-4.18C106.78,226.67,96.16,236.32,88.44,234.07Z" transform="translate(-17.62 -16)"/>
          <line class="cls-9" x1="70.83" y1="218.07" x2="81.42" y2="209.87"/>
        </g>
        <g>
          <line class="cls-7" x1="65.68" y1="190.57" x2="73.08" y2="180.91"/>
          <path class="cls-8" d="M88.44,199.81a9.48,9.48,0,0,1,2.58-7.4c1.93-2.13,12.67-8,14.15-4.18C106.78,192.41,96.16,202.06,88.44,199.81Z" transform="translate(-17.62 -16)"/>
          <line class="cls-9" x1="70.83" y1="183.81" x2="81.42" y2="175.61"/>
          <path class="cls-8" d="M82.85,184.61a9.48,9.48,0,0,1,2.58-7.4c1.93-2.12,12.67-8,14.15-4.18C101.19,177.21,90.57,186.87,82.85,184.61Z" transform="translate(-17.62 -16)"/>
          <line class="cls-9" x1="65.24" y1="168.61" x2="75.83" y2="160.41"/>
          <path class="cls-8" d="M83.37,185.07a9.44,9.44,0,0,1-7.09-3.34c-1.91-2.14-6.65-13.44-2.67-14.51C77.93,166.06,86.42,177.63,83.37,185.07Z" transform="translate(-17.62 -16)"/>
          <line class="cls-9" x1="65.75" y1="169.07" x2="58.71" y2="157.68"/>
        </g>
      </g>
      <polygon class="cls-10" points="74.86 446.93 51.19 446.93 48.23 387.15 77.82 387.15 74.86 446.93"/>
    </g>
  </g>
  <g id="Device">
    <g>
      <polygon class="cls-11" points="288.73 204 361.72 204 344.72 266.62 271.73 266.62 288.73 204"/>
      <polygon class="cls-6" points="290.81 206.33 358.36 206.33 342.63 264.29 275.08 264.29 290.81 206.33"/>
      <g>
        <g>
          <path class="cls-12" d="M324.79,262.21l4.06-15.16h1.69l-3.64,13.63h4.33l-.41,1.53Z" transform="translate(-17.62 -16)"/>
          <path class="cls-12" d="M335.05,250.71c.62-2.32,2.17-3.81,4.48-3.81s3.09,1.49,2.47,3.81l-2.1,7.84c-.61,2.3-2.17,3.82-4.51,3.82s-3.06-1.52-2.44-3.82Zm-.46,7.93c-.37,1.39,0,2.19,1.22,2.19s2-.8,2.38-2.19l2.14-8c.37-1.37,0-2.19-1.21-2.19s-2,.82-2.38,2.19Z" transform="translate(-17.62 -16)"/>
          <path class="cls-12" d="M350.3,250.71,350,252h-1.6l.37-1.38c.37-1.37,0-2.19-1.19-2.19s-2,.82-2.36,2.19l-2.15,8c-.36,1.36,0,2.19,1.19,2.19s2-.83,2.36-2.19l.82-3h-1.56l.4-1.52h3.17l-1.2,4.46c-.61,2.3-2.1,3.82-4.44,3.82s-3-1.52-2.38-3.82l2.1-7.84c.61-2.29,2.1-3.81,4.42-3.81S350.91,248.42,350.3,250.71Z" transform="translate(-17.62 -16)"/>
          <path class="cls-12" d="M351.78,250.71c.62-2.32,2.16-3.81,4.48-3.81s3.09,1.49,2.47,3.81l-2.1,7.84c-.61,2.3-2.17,3.82-4.51,3.82s-3.06-1.52-2.44-3.82Zm-.46,7.93c-.37,1.39,0,2.19,1.22,2.19s2-.8,2.38-2.19l2.14-8c.37-1.37,0-2.19-1.21-2.19s-2,.82-2.38,2.19Z" transform="translate(-17.62 -16)"/>
        </g>
        <path class="cls-3" d="M326.63,247.88c-.13-3.45-.93-9.81-4.7-14.73-5.45-7.1-15.33,2.56-11.17,14.64a15.27,15.27,0,0,0,2.36,4.31" transform="translate(-17.62 -16)"/>
        <path class="cls-3" d="M317.05,255.91s-14.42,2.19-11.38,7.48c5.25,9.17,14,.75,17.67-3.54" transform="translate(-17.62 -16)"/>
        <path class="cls-4" d="M323.58,243.28c1.62,4.35,1.28,8.49-.76,9.25s-5-2.15-6.64-6.5-1.27-8.5.77-9.26S322,238.93,323.58,243.28Z" transform="translate(-17.62 -16)"/>
        <path class="cls-4" d="M309.07,263.64c.5,1.33,3.06,1.59,5.72.58s4.4-2.9,3.9-4.23-3.07-1.59-5.72-.58S308.56,262.31,309.07,263.64Z" transform="translate(-17.62 -16)"/>
        <path class="cls-3" d="M331,235.62a14.72,14.72,0,0,1-2.35,13.87,23.88,23.88,0,0,0-1.24-11" transform="translate(-17.62 -16)"/>
      </g>
      <rect class="cls-11" x="242.4" y="263.3" width="102.32" height="3.33"/>
      <rect class="cls-13" x="297.7" y="263.3" width="47.02" height="3.33"/>
    </g>
  </g>
  <g id="Table">
    <g>
      <g>
        <rect class="cls-6" x="209.67" y="271.93" width="5.5" height="174.61"/>
        <rect class="cls-14" x="222.59" y="287.93" width="4.7" height="174.61" transform="translate(432.25 734.47) rotate(180)"/>
      </g>
      <g>
        <rect class="cls-6" x="350.56" y="363.29" width="5.5" height="83.25"/>
        <rect class="cls-14" x="363.48" y="379.29" width="4.7" height="83.25" transform="translate(714.05 825.84) rotate(180)"/>
      </g>
      <g>
        <g>
          <rect class="cls-6" x="409.46" y="363.29" width="5.5" height="83.25"/>
          <rect class="cls-14" x="422.38" y="379.29" width="4.7" height="83.25" transform="translate(831.83 825.84) rotate(180)"/>
        </g>
        <g>
          <rect class="cls-14" x="313.67" y="289.63" width="53.66" height="94.42" transform="translate(663.37 657.67) rotate(180)"/>
          <rect class="cls-6" x="349.71" y="273.63" width="70.71" height="94.42"/>
          <polygon class="cls-15" points="349.71 273.63 296.05 273.63 296.05 278.23 349.71 278.23 420.42 278.23 420.42 273.63 349.71 273.63"/>
          <g>
            <rect class="cls-6" x="300.63" y="279.04" width="45.75" height="22.04"/>
            <rect class="cls-12" x="317.47" y="287.98" width="12.06" height="4.16"/>
          </g>
          <g>
            <rect class="cls-6" x="300.63" y="309.4" width="45.75" height="22.04"/>
            <rect class="cls-12" x="317.47" y="317.93" width="12.06" height="4.16"/>
          </g>
          <g>
            <rect class="cls-6" x="300.63" y="339.76" width="45.75" height="22.04"/>
            <rect class="cls-12" x="317.47" y="347.87" width="12.06" height="4.16"/>
          </g>
        </g>
        <g>
          <rect class="cls-14" x="197.38" y="269.48" width="230.33" height="5.49"/>
          <rect class="cls-6" x="358.16" y="269.48" width="69.55" height="5.49"/>
        </g>
      </g>
    </g>
  </g>
  <g id="Character">
    <g>
      <g>
        <path class="cls-6" d="M234.53,341.36s6.86,4.75,17,34.11c3.38,9.76,22.39,62.39,23.39,66s3,8,6,8,14-14,12.66-15.66-7.66-8.34-7.66-8.34-3.78-42.6-4.45-54.6,2.06-26.45-4.27-36.12-34.34.33-34.34.33Z" transform="translate(-17.62 -16)"/>
        <g>
          <path class="cls-4" d="M289,425.52a4.47,4.47,0,0,0-2.34,4.34c.34,3,3.34,7,3.34,7s-6.34,5-9.67,5.33-7,1-7,2,2.67,2.67,4.33,6.33A81.35,81.35,0,0,0,284,461.19c1,1.33,1.66,2.33,5.33,1.33s11.67-8.33,16-11.33,17.33-5,19.67-6.67,9.66-12.33,6.33-14.33-4.33.33-8.33,1.33-15.67-.33-22-1.66-8.34-1.67-8.34-1.67Z" transform="translate(-17.62 -16)"/>
          <path class="cls-6" d="M283.42,460.43c.22.32.4.58.54.76,1,1.33,1.66,2.33,5.33,1.33s11.67-8.33,16-11.33,17.33-5,19.67-6.67,9.66-12.33,6.33-14.33a5.6,5.6,0,0,0-1.51-.66c.06.22.12.42.18.66,1,4-2.34,8-5.34,11s-13,2.33-24,8A107.74,107.74,0,0,0,283.42,460.43Z" transform="translate(-17.62 -16)"/>
        </g>
        <path class="cls-15" d="M283.1,392.17c-.72-8.77-1.35-17-1.59-21.25-.67-12,2.06-26.45-4.27-36.12s-34.34.33-34.34.33l-8.37,6.23s6.86,4.75,17,34.11c1.29,3.73,4.87,13.74,8.86,24.87Z" transform="translate(-17.62 -16)"/>
      </g>
      <g>
        <g>
          <path class="cls-6" d="M266.78,170.38a19.26,19.26,0,0,1,1.21,7.25c-.3,3.33-3.33,4.84-3.63,3.94a21.64,21.64,0,0,1-.3-4.54v-1.21a15.46,15.46,0,0,1-2.72,3.33c-2.12,2.11-3.33,1.51-4.24,1.51s-1.21-3,.31-5.14S263.76,168.56,266.78,170.38Z" transform="translate(-17.62 -16)"/>
          <path class="cls-6" d="M273.74,178.24c-3-1.82-7.56,4.54-14.52,3-.89-.19-1.21-1.51.3-4.53s6.35-5.45,8.77-7.26,4.24-3.33,4.24-5.45-5.45,1.21-7,2.42a49.12,49.12,0,0,1-5.7,3.05l-1.31.07c-2.69.17-6.84.65-8.41,2-2.06,1.79-3.24,7.94-3.73,10.31-1.34,1.94-2.54,3.73-3.23,4.81-2.12,3.32-44.76,34.48-44.76,34.48l3,26.61,48.39-55a13.23,13.23,0,0,1,4.54-2.42c3.33-1.21,7.86-2.12,11.8-4.24a90.61,90.61,0,0,0,8.47-5.14C276.7,179.64,275.38,179.22,273.74,178.24Z" transform="translate(-17.62 -16)"/>
          <path class="cls-4" d="M222.88,203C211,212,198.43,221.19,198.43,221.19l3,26.61L231.18,214Z" transform="translate(-17.62 -16)"/>
        </g>
        <g>
          <path class="cls-6" d="M208,303.67s21.33-1,52.33,4S302.93,318,302,324c-3.78,24.34-60.61,104.47-60.61,104.47l1,11.33s-2,2.67-9,3-15.67-9.66-15.67-9.66,7.83-8.1,10.83-17.76,27.12-72.05,27.12-72.05-31.67,7-66.67.67S208,303.67,208,303.67Z" transform="translate(-17.62 -16)"/>
          <path class="cls-15" d="M260.33,307.67c-31-5-52.33-4-52.33-4s-54,34-19,40.33,66.67-.67,66.67-.67-10,26-18,47l23.51,9C278,373.89,299.71,338.73,302,324,302.93,318,291.33,312.67,260.33,307.67Z" transform="translate(-17.62 -16)"/>
          <g>
            <path class="cls-4" d="M241.39,428.47a5.52,5.52,0,0,0-3,3,44.6,44.6,0,0,0-1.67,4.67,61.07,61.07,0,0,1-10.66-3.34,59.44,59.44,0,0,1-7.34-4s-3,.34-3,2.34a26,26,0,0,1-1.66,9c-.86,2.14-2.69,6.91-3.88,10a2.72,2.72,0,0,0,1.95,3.62c5.28,1.17,16.41,3.74,25.93,6.67,13,4,27.33,2,29,1.67s8.33-4.34,5.33-7-20.67-9.67-24.33-14.34S241.39,428.47,241.39,428.47Z" transform="translate(-17.62 -16)"/>
            <path class="cls-6" d="M271.05,454.2c0,3.31-1.7,6.6-7,6.6s-14.67-.66-28-6a175.2,175.2,0,0,0-24.73-7.64c-.41,1.07-.81,2.11-1.15,3a2.72,2.72,0,0,0,1.95,3.62c5.28,1.17,16.41,3.74,25.93,6.67,13,4,27.33,2,29,1.67s8.33-4.34,5.33-7A9.24,9.24,0,0,0,271.05,454.2Z" transform="translate(-17.62 -16)"/>
          </g>
        </g>
        <g>
          <path class="cls-4" d="M140.66,226s-3.63,28.74-3.32,34.18,4.23,52.32,5.14,62.61,5.14,19.35,12.7,21.17,27.22,4.53,35.69,2.42,17.54-21.17,20.56-28.43,5.15-11.8,4.24-13.31-4.84-4.84-4.84-4.84-7.56-55-9.38-69.26-.9-15.42-7.56-20.87S152.76,199.71,140.66,226Z" transform="translate(-17.62 -16)"/>
          <path class="cls-3" d="M189.06,326.31c-1.09.83-2.23,1.62-3.39,2.36" transform="translate(-17.62 -16)"/>
          <path class="cls-3" d="M209,302s-6.42,12.6-17.05,21.94" transform="translate(-17.62 -16)"/>
          <path class="cls-3" d="M204.33,302.67s-10.33,9.66-20.66,15.66" transform="translate(-17.62 -16)"/>
        </g>
        <g>
          <g>
            <path class="cls-6" d="M212.64,135.59a59.66,59.66,0,0,1,3.94,10.89c.9,4.54,1.21,8.77,3.32,9.68s6,1.21,5.45,3.63-4.54,6.35-4.54,6.35.91,14.52.6,17.24-16.33,2.72-17.23,2.72-10,21.48-10,21.48l-25.4-12.71,4.84-15.72s-7.86-15.13-8.47-21.78S180,138.62,188.75,135.9,212.64,135.59,212.64,135.59Z" transform="translate(-17.62 -16)"/>
            <polygon class="cls-15" points="186.56 170.1 178.49 167.8 181.51 179.61 186.56 170.1"/>
            <path class="cls-12" d="M215.64,152.7c.4,1.71.21,3.22-.44,3.37s-1.51-1.1-1.92-2.8-.21-3.22.44-3.37S215.23,151,215.64,152.7Z" transform="translate(-17.62 -16)"/>
            <path class="cls-3" d="M210.53,168.86s3.63,2.73,6.95,1.52" transform="translate(-17.62 -16)"/>
          </g>
          <path class="cls-15" d="M211.13,129.85s4.24,7.56,1.21,12.4-10.28,6.95-14.21,11.49-6,12.4-7.56,13-6-8.47-8.78-7.87-7.25,7-3.32,13.61a11.49,11.49,0,0,0,10.89,5.75s-10.89,5.75-13,5.75-8.47-3.63-11.49-7S151,163.72,150.34,155.56s10.28-18.45,10.28-18.45-13-.91-9.67-5.75,15.12-7.86,15.12-7.86-2.12-7.56.91-9.08S188.45,119,188.45,119s-5.14-6.65,2.12-7S210.22,120.77,211.13,129.85Z" transform="translate(-17.62 -16)"/>
          <g>
            <line class="cls-3" x1="169.45" y1="146.69" x2="208.03" y2="131.09"/>
            <path class="cls-3" d="M215.59,144.9a6.81,6.81,0,0,1,6,12.21" transform="translate(-17.62 -16)"/>
          </g>
        </g>
        <g>
          <path class="cls-4" d="M201.45,216s-.3-8.77-2.72-11.19-20.26-12.4-28.43-14.51-16.63.9-22.08,2.72S139.15,200,137,211.21s-2.42,18.14,2.12,18.75,10.89-13,25.1-15.73,27.22-.3,30.25,1.21S201.45,216,201.45,216Z" transform="translate(-17.62 -16)"/>
          <path class="cls-3" d="M155.52,206.76c-2.73,1-4.57,1.72-4.57,1.72" transform="translate(-17.62 -16)"/>
          <path class="cls-3" d="M201.45,216s-19-10.58-26-12.7c-3.63-1.1-10.15.35-15.55,2" transform="translate(-17.62 -16)"/>
        </g>
        <g>
          <path class="cls-6" d="M291.26,265.2s-1,6.29-2.15,7-1.08-5.84-1.08-5.84-1.44,3.77-2.33,4.67-.36-3.86-.36-3.86l1-4.49Z" transform="translate(-17.62 -16)"/>
          <path class="cls-6" d="M278.46,259l9.28.15s2.45.35,2.8,1.75a42.88,42.88,0,0,0,1.75,4.55l-14.36-4.2Z" transform="translate(-17.62 -16)"/>
          <path class="cls-6" d="M281.78,261.93s13-1.75,13.31-.7c.26.79,1.26,7.91,1.48,10.21a.37.37,0,0,1-.66.25l-3.62-6.26-9.81.7S279.68,263.68,281.78,261.93Z" transform="translate(-17.62 -16)"/>
          <path class="cls-4" d="M174.31,222.72s-8.06,5.95-5.26,20.66,22.41,55,24.16,58.46,9.45,3.85,12.95,2.8S272,278.74,272,278.74s6.65-1.76,7.7-3.16,7.71-8.75,7.71-8.75,10.5,1.4,12.95.7-2.45-1.4-4.9-2.1c-1.89-.54-12.31-4.61-17-6.45a3.66,3.66,0,0,0-4,.85c-3.28,3.36-10.27,10.49-11.6,11.55-1.75,1.4-51.11,9.81-51.11,9.81s-11.56-54.27-16.11-58.82-12.6-3.5-12.6-3.5" transform="translate(-17.62 -16)"/>
          <path class="cls-6" d="M239.42,291.68C255.77,285.2,272,278.74,272,278.74s6.65-1.76,7.7-3.16,7.7-8.75,7.7-8.75,10.51,1.4,13,.7-2.45-1.4-4.9-2.1c-1.89-.54-12.31-4.61-17-6.45a3.66,3.66,0,0,0-4,.85c-3.28,3.36-10.27,10.49-11.6,11.55-.91.73-14.7,3.35-27.73,5.7Z" transform="translate(-17.62 -16)"/>
        </g>
      </g>
    </g>
    <g>
      <g>
        <path class="cls-16" d="M130,360.58,114.75,461.92a.83.83,0,0,0,1.61.41l23-100.08Z" transform="translate(-17.62 -16)"/>
        <path class="cls-16" d="M152.76,361.25l6.63,100.48a.83.83,0,0,0,1.66,0l1.15-101.29Z" transform="translate(-17.62 -16)"/>
        <path class="cls-16" d="M175.13,362.76l18.2,98.74a.83.83,0,0,0,1.63-.26l-10.6-100.63Z" transform="translate(-17.62 -16)"/>
        <path class="cls-16" d="M210.31,361.93l14.89,99.4a.83.83,0,0,0,1.64-.19l-7.22-101Z" transform="translate(-17.62 -16)"/>
      </g>
      <path class="cls-6" d="M196.08,341.7s-17.51-5.84-25.68-26.84S148.82,257.68,139.48,253s-27.42,4.08-28.59,37.92,1.57,59,9.11,67.32c6.67,7.33,18,16.67,57.33,17.33,35.13.6,49.47-12.79,54.34-17.33S244.5,344,238.09,344,204.25,344,196.08,341.7Z" transform="translate(-17.62 -16)"/>
    </g>
  </g>
  <g id="Butterfly">
    <g>
      <g>
        <path class="cls-6" d="M276.93,134s-6.83-8-16.32-9.49-10.13,12.35,2,18.42a20.2,20.2,0,0,0,10.89,1.7s-9.69,11.45-3.42,13.28c14,4.12,11-17.46,11-17.46Z" transform="translate(-17.62 -16)"/>
        <path class="cls-6" d="M279.23,133.45s-4-9.71-1-18.85,14.89-2.93,14.77,10.64a20.67,20.67,0,0,1-2.73,10s15.26-3.25,13.38,3c-4.27,14.21-20.56,1.85-20.56,1.85Z" transform="translate(-17.62 -16)"/>
        <path class="cls-12" d="M284.53,145.58a1,1,0,0,1-.86-.49l-9.49-15.94a1,1,0,0,1,.34-1.37,1,1,0,0,1,1.38.35l9.48,15.94a1,1,0,0,1-.34,1.37A1.06,1.06,0,0,1,284.53,145.58Z" transform="translate(-17.62 -16)"/>
        <path class="cls-3" d="M275.8,130.54s-3.42-7.21-9.49-8" transform="translate(-17.62 -16)"/>
        <path class="cls-3" d="M275.9,128.13s-2-5.94-.48-9.74" transform="translate(-17.62 -16)"/>
      </g>
      <path class="cls-4" d="M269.85,134.87c-.36,1.76-3,2.72-5.86,2.14s-4.93-2.49-4.57-4.25,3-2.73,5.86-2.14S270.21,133.1,269.85,134.87Z" transform="translate(-17.62 -16)"/>
      <path class="cls-4" d="M277,147.27c1,.67,1,2.55-.13,4.22S274,154,273,153.28s-1-2.55.13-4.22S275.93,146.6,277,147.27Z" transform="translate(-17.62 -16)"/>
      <path class="cls-4" d="M297.79,138.9c0,1.22-1.58,2.23-3.57,2.26s-3.61-.94-3.63-2.16,1.58-2.23,3.57-2.26S297.77,137.69,297.79,138.9Z" transform="translate(-17.62 -16)"/>
      <path class="cls-4" d="M285.47,128.46c-1.79.2-3.51-2-3.83-4.93s.87-5.44,2.66-5.64,3.5,2,3.82,4.93S287.26,128.26,285.47,128.46Z" transform="translate(-17.62 -16)"/>
    </g>
  </g>
  <g id="Floor">
    <line class="cls-6" x1="6.54" y1="446.93" x2="472.33" y2="446.93"/>
  </g>
</svg>
