<svg xmlns="http://www.w3.org/2000/svg" xmlns:xlink="http://www.w3.org/1999/xlink" viewBox="0 0 453.02 371.85">
  <defs>
    <style>
      .cls-1, .cls-2, .cls-9 {
        fill: #92e3a9;
      }

      .cls-1, .cls-12, .cls-13, .cls-21, .cls-22, .cls-4, .cls-5, .cls-7 {
        stroke: #263238;
        stroke-linecap: round;
        stroke-linejoin: round;
      }

      .cls-15, .cls-25, .cls-3, .cls-7, .cls-8 {
        fill: #fff;
      }

      .cls-3 {
        opacity: 0.7;
      }

      .cls-4, .cls-5 {
        fill: none;
      }

      .cls-5 {
        stroke-width: 2px;
      }

      .cls-21, .cls-6 {
        fill: #263238;
      }

      .cls-10, .cls-11, .cls-16, .cls-9 {
        opacity: 0.5;
      }

      .cls-12 {
        fill: #999;
      }

      .cls-13 {
        fill: #bfbfbf;
      }

      .cls-14 {
        clip-path: url(#clip-path);
      }

      .cls-15 {
        opacity: 0.4;
      }

      .cls-16, .cls-18 {
        fill-opacity: 0.7;
      }

      .cls-17 {
        clip-path: url(#clip-path-2);
      }

      .cls-18 {
        opacity: 0.3;
      }

      .cls-19 {
        clip-path: url(#clip-path-3);
      }

      .cls-20 {
        clip-path: url(#clip-path-4);
      }

      .cls-22 {
        fill: #757575;
      }

      .cls-23 {
        clip-path: url(#clip-path-5);
      }

      .cls-24 {
        clip-path: url(#clip-path-6);
      }

      .cls-25 {
        opacity: 0.2;
      }
    </style>
    <clipPath id="clip-path" transform="translate(-23.49 -62.3)">
      <path class="cls-1" d="M472.07,364.4a15.45,15.45,0,0,1-.93,5.44c-1,2.61-2.64,4.31-4.53,4.31h-88.9l-2.58-13.37,1-.41,10.06-4.2a19.66,19.66,0,0,1,7.6-1.54h72.86c1.49,0,2.84,1.07,3.83,2.8A14.44,14.44,0,0,1,472.07,364.4Z"/>
    </clipPath>
    <clipPath id="clip-path-2" transform="translate(-23.49 -62.3)">
      <path class="cls-1" d="M387.22,359.17H348.43v54.6h38.79c8.07,0,14.62-12.22,14.62-27.3S395.29,359.17,387.22,359.17Z"/>
    </clipPath>
    <clipPath id="clip-path-3" transform="translate(-23.49 -62.3)">
      <ellipse class="cls-1" cx="346" cy="386.47" rx="13.73" ry="25.63"/>
    </clipPath>
    <clipPath id="clip-path-4" transform="translate(-23.49 -62.3)">
      <ellipse class="cls-1" cx="343.16" cy="386.47" rx="11.76" ry="24.06"/>
    </clipPath>
    <clipPath id="clip-path-5" transform="translate(-23.49 -62.3)">
      <path class="cls-1" d="M454.68,367.23v55.49a10.93,10.93,0,0,1-10.93,10.93H368.06a10.94,10.94,0,0,1-10.94-10.93v-9H362c8.08,0,14.62-12.21,14.62-27.29,0-9.34-2.51-17.59-6.34-22.51h81.14A3.26,3.26,0,0,1,454.68,367.23Z"/>
    </clipPath>
    <clipPath id="clip-path-6" transform="translate(-23.49 -62.3)">
      <path class="cls-1" d="M464.48,394.73a70.49,70.49,0,0,1-4.67,25.21,4.22,4.22,0,0,1-.9,1.39,4.75,4.75,0,0,1-.6.49,4,4,0,0,1-2.29.72H392a5.75,5.75,0,0,1-5.76-5.75V372.67a5.76,5.76,0,0,1,5.76-5.75h64a4.05,4.05,0,0,1,2.89,1.21,4.16,4.16,0,0,1,.9,1.4A70.36,70.36,0,0,1,464.48,394.73Z"/>
    </clipPath>
  </defs>
  <g id="Background_Simple" data-name="Background Simple">
    <g>
      <path class="cls-2" d="M426.5,390H88.1S13,349.63,42.05,220.44c15-66.75,90.47-130,184-148.66l2.12-.42c28-5.38,53.37-7,75.89-5.73,53.36,3,90.94,22,111.55,45,29.31,32.75-20.34,103.46,1.51,139.78S506.6,340.17,426.5,390Z" transform="translate(-23.49 -62.3)"/>
      <path class="cls-3" d="M426.5,390H88.1S13,349.63,42.05,220.44c15-66.75,90.47-130,184-148.66l2.12-.42c28-5.38,53.37-7,75.89-5.73,53.36,3,90.94,22,111.55,45,29.31,32.75-20.34,103.46,1.51,139.78S506.6,340.17,426.5,390Z" transform="translate(-23.49 -62.3)"/>
    </g>
  </g>
  <g id="Film_roll" data-name="Film roll">
    <g>
      <g>
        <path class="cls-4" d="M156,159.82a58.36,58.36,0,0,1-.9,9.84" transform="translate(-23.49 -62.3)"/>
        <path class="cls-4" d="M153.82,175.15a58,58,0,0,1-80.4,36.78" transform="translate(-23.49 -62.3)"/>
        <path class="cls-4" d="M68.36,209.25q-2.25-1.35-4.38-2.88" transform="translate(-23.49 -62.3)"/>
        <path class="cls-4" d="M60.7,203.81c-1.22-1-2.39-2.1-3.53-3.22" transform="translate(-23.49 -62.3)"/>
        <path class="cls-4" d="M49.93,191.86a58,58,0,0,1,24.82-85.59" transform="translate(-23.49 -62.3)"/>
        <path class="cls-4" d="M82.61,103.49c1.37-.37,2.76-.7,4.17-1a57.75,57.75,0,0,1,30.31,2.13" transform="translate(-23.49 -62.3)"/>
        <path class="cls-4" d="M123.2,107.18a58,58,0,0,1,29.31,32.43" transform="translate(-23.49 -62.3)"/>
        <path class="cls-4" d="M153.19,141.62c.41,1.25.77,2.52,1.09,3.81" transform="translate(-23.49 -62.3)"/>
      </g>
      <g>
        <path class="cls-4" d="M108.73,106.93a52.78,52.78,0,0,1,8.75,2.58" transform="translate(-23.49 -62.3)"/>
        <path class="cls-4" d="M122.22,111.64A53.52,53.52,0,0,1,141.17,191" transform="translate(-23.49 -62.3)"/>
        <path class="cls-4" d="M137.84,195.1q-1.62,1.82-3.39,3.46" transform="translate(-23.49 -62.3)"/>
        <path class="cls-4" d="M131.55,201.07c-1.14.92-2.33,1.8-3.55,2.62" transform="translate(-23.49 -62.3)"/>
        <path class="cls-4" d="M118.81,208.69a53.56,53.56,0,0,1-73.08-37.76" transform="translate(-23.49 -62.3)"/>
        <path class="cls-4" d="M44.62,163.32c-.09-1.3-.14-2.62-.14-3.95a53.2,53.2,0,0,1,7.34-27.06" transform="translate(-23.49 -62.3)"/>
        <path class="cls-4" d="M55.21,127.23A53.42,53.42,0,0,1,89.8,106.48" transform="translate(-23.49 -62.3)"/>
        <path class="cls-4" d="M91.74,106.22c1.21-.14,2.43-.24,3.65-.3" transform="translate(-23.49 -62.3)"/>
      </g>
      <path class="cls-4" d="M105.89,153.77a9.72,9.72,0,1,1-2-2.09" transform="translate(-23.49 -62.3)"/>
      <path class="cls-4" d="M96.69,155.46a4,4,0,0,1,1.31-.21,4.12,4.12,0,1,1-4.12,4.12v-.27" transform="translate(-23.49 -62.3)"/>
      <g>
        <path class="cls-4" d="M93.3,182a13.08,13.08,0,0,1,4.7-.87h.58" transform="translate(-23.49 -62.3)"/>
        <path class="cls-4" d="M102.87,182.06a13,13,0,1,1-14.6,3.41" transform="translate(-23.49 -62.3)"/>
        <path class="cls-4" d="M121.07,187.52a13,13,0,1,1,13.38.45" transform="translate(-23.49 -62.3)"/>
        <path class="cls-4" d="M130.43,189.39a12.66,12.66,0,0,1-4.24.06" transform="translate(-23.49 -62.3)"/>
        <path class="cls-4" d="M74.66,165.41a13,13,0,0,1-12.94,22.65" transform="translate(-23.49 -62.3)"/>
        <path class="cls-4" d="M56.34,182.68a13.06,13.06,0,0,1,11.52-19.19,13.15,13.15,0,0,1,2.28.2" transform="translate(-23.49 -62.3)"/>
        <path class="cls-4" d="M116.81,148.69a13,13,0,0,1,2.54-16.14" transform="translate(-23.49 -62.3)"/>
        <path class="cls-4" d="M122.33,130.5a13.05,13.05,0,1,1,5.8,24.75,13,13,0,0,1-5.54-1.23" transform="translate(-23.49 -62.3)"/>
        <path class="cls-4" d="M75.8,152.56a13.07,13.07,0,0,1-14.21,1.09" transform="translate(-23.49 -62.3)"/>
        <path class="cls-4" d="M58.92,151.71a13,13,0,1,1,20.31-3.09" transform="translate(-23.49 -62.3)"/>
        <path class="cls-4" d="M91.48,113.26A13.07,13.07,0,0,1,98,111.52a12.44,12.44,0,0,1,1.37.08" transform="translate(-23.49 -62.3)"/>
        <path class="cls-4" d="M103.74,112.85a13,13,0,1,1-16.06,3.73" transform="translate(-23.49 -62.3)"/>
      </g>
    </g>
    <g>
      <path class="cls-4" d="M367.3,98.53c1.24-1.69,2-2.77,2-2.77l31.9,23.31-17.9,24.51-12-8.75" transform="translate(-23.49 -62.3)"/>
      <path class="cls-4" d="M366.5,131.29l-15.08-11,5.09-7" transform="translate(-23.49 -62.3)"/>
      <path class="cls-4" d="M358.26,110.9l6.57-9" transform="translate(-23.49 -62.3)"/>
      <path class="cls-4" d="M348.77,162.72l-18.49-13.51s.9-1.22,2.28-3.12" transform="translate(-23.49 -62.3)"/>
      <path class="cls-4" d="M336.31,141l11.87-16.26,22,16.09" transform="translate(-23.49 -62.3)"/>
      <path class="cls-4" d="M373.9,143.49l6.19,4.51-17.9,24.51-5.61-4.09" transform="translate(-23.49 -62.3)"/>
      <path class="cls-4" d="M354.17,183.49l-13.12,18-31.9-23.3,5.24-7.18" transform="translate(-23.49 -62.3)"/>
      <path class="cls-4" d="M316.88,167.56l10.17-13.92,24.17,17.65" transform="translate(-23.49 -62.3)"/>
      <path class="cls-4" d="M354.22,173.49l4.73,3.45-2.46,3.37" transform="translate(-23.49 -62.3)"/>
      <path class="cls-4" d="M316.45,190.27l21.37,15.61-3.39,4.63" transform="translate(-23.49 -62.3)"/>
      <path class="cls-4" d="M333.66,211.57l-3.38,4.63" transform="translate(-23.49 -62.3)"/>
      <path class="cls-4" d="M326.48,221.4l-6.56,9L288,207.09l17.91-24.51,5.9,4.31" transform="translate(-23.49 -62.3)"/>
      <path class="cls-4" d="M294.7,218.76l22,16.05-17.9,24.51L266.88,236s1.71-2.33,4.06-5.56" transform="translate(-23.49 -62.3)"/>
      <path class="cls-4" d="M274.37,225.77l10.41-14.26,4.8,3.51" transform="translate(-23.49 -62.3)"/>
      <path class="cls-4" d="M267.14,280.58,245.75,265l17.9-24.51,6.62,4.84" transform="translate(-23.49 -62.3)"/>
      <path class="cls-4" d="M274.36,248.28l21.19,15.47-17.9,24.51-6.07-4.43" transform="translate(-23.49 -62.3)"/>
      <path class="cls-4" d="M256.85,279.86l4.89,3.57" transform="translate(-23.49 -62.3)"/>
      <path class="cls-4" d="M265.36,286.07l9.06,6.62L256.51,317.2l-31.9-23.3,17.9-24.51L253,277" transform="translate(-23.49 -62.3)"/>
      <path class="cls-4" d="M215.7,306.1l5.68-7.78,31.9,23.3-17.9,24.52-31.9-23.31,5.93-8.12" transform="translate(-23.49 -62.3)"/>
      <path class="cls-4" d="M210.68,313c1-1.37,2-2.77,3-4.15" transform="translate(-23.49 -62.3)"/>
      <path class="cls-4" d="M398,72.36l3.81,2.78" transform="translate(-23.49 -62.3)"/>
      <path class="cls-4" d="M403.52,76.37l18.84,13.76-8.53,11.67" transform="translate(-23.49 -62.3)"/>
      <path class="cls-4" d="M410.2,106.77l-5.75,7.87-24.67-18" transform="translate(-23.49 -62.3)"/>
      <path class="cls-4" d="M376,93.89l-3.49-2.55L387.5,70.87" transform="translate(-23.49 -62.3)"/>
      <path class="cls-4" d="M388.6,69.36l1.85-2.53,4,2.91" transform="translate(-23.49 -62.3)"/>
      <path class="cls-4" d="M228.24,347.7l3.91,2.86-17.9,24.51-18.79-13.72" transform="translate(-23.49 -62.3)"/>
      <path class="cls-4" d="M194,360.27,190.9,358" transform="translate(-23.49 -62.3)"/>
      <path class="cls-4" d="M186.43,354.76l-4.09-3,17.9-24.51,23.31,17" transform="translate(-23.49 -62.3)"/>
      <g>
        <g>
          <path class="cls-4" d="M426.37,93.06l1.5,1.1L426,96.71l-2.55-1.86,1.86-2.56.35.26" transform="translate(-23.49 -62.3)"/>
          <rect class="cls-4" x="420.52" y="97.79" width="3.16" height="3.16" transform="translate(116.35 -292.13) rotate(36.14)"/>
          <rect class="cls-4" x="416.96" y="102.66" width="3.16" height="3.16" transform="translate(118.54 -289.09) rotate(36.14)"/>
          <rect class="cls-4" x="413.41" y="107.52" width="3.16" height="3.16" transform="translate(120.72 -286.06) rotate(36.14)"/>
          <rect class="cls-4" x="409.85" y="112.39" width="3.16" height="3.16" transform="translate(122.91 -283.03) rotate(36.14)"/>
          <rect class="cls-4" x="406.3" y="117.26" width="3.16" height="3.16" transform="translate(125.1 -279.99) rotate(36.14)"/>
          <rect class="cls-4" x="402.74" y="122.13" width="3.16" height="3.16" transform="translate(127.29 -276.96) rotate(36.14)"/>
          <rect class="cls-4" x="399.19" y="127" width="3.16" height="3.16" transform="translate(129.47 -273.92) rotate(36.14)"/>
          <rect class="cls-4" x="395.63" y="131.87" width="3.16" height="3.16" transform="translate(131.66 -270.89) rotate(36.14)"/>
          <rect class="cls-4" x="392.07" y="136.74" width="3.16" height="3.16" transform="translate(133.85 -267.86) rotate(36.14)"/>
          <rect class="cls-4" x="388.52" y="141.61" width="3.16" height="3.16" transform="translate(136.03 -264.82) rotate(36.14)"/>
          <rect class="cls-4" x="384.96" y="146.47" width="3.16" height="3.16" transform="translate(138.22 -261.79) rotate(36.14)"/>
          <rect class="cls-4" x="381.41" y="151.34" width="3.16" height="3.16" transform="translate(140.41 -258.75) rotate(36.14)"/>
          <rect class="cls-4" x="377.85" y="156.21" width="3.16" height="3.16" transform="translate(142.6 -255.72) rotate(36.14)"/>
          <rect class="cls-4" x="374.29" y="161.08" width="3.16" height="3.16" transform="translate(144.79 -252.69) rotate(36.14)"/>
          <rect class="cls-4" x="370.74" y="165.95" width="3.16" height="3.16" transform="matrix(0.81, 0.59, -0.59, 0.81, 146.98, -249.65)"/>
          <rect class="cls-4" x="367.18" y="170.82" width="3.16" height="3.16" transform="translate(149.16 -246.62) rotate(36.14)"/>
          <rect class="cls-4" x="363.63" y="175.69" width="3.16" height="3.16" transform="translate(151.35 -243.59) rotate(36.14)"/>
          <rect class="cls-4" x="360.07" y="180.56" width="3.16" height="3.16" transform="translate(153.54 -240.55) rotate(36.14)"/>
          <rect class="cls-4" x="356.51" y="185.43" width="3.16" height="3.16" transform="translate(155.73 -237.52) rotate(36.14)"/>
          <rect class="cls-4" x="352.96" y="190.29" width="3.16" height="3.16" transform="translate(157.91 -234.48) rotate(36.14)"/>
          <rect class="cls-4" x="349.4" y="195.16" width="3.16" height="3.16" transform="translate(160.09 -231.45) rotate(36.14)"/>
          <rect class="cls-4" x="345.85" y="200.03" width="3.16" height="3.16" transform="matrix(0.81, 0.59, -0.59, 0.81, 162.28, -228.41)"/>
          <rect class="cls-4" x="342.29" y="204.9" width="3.16" height="3.16" transform="translate(164.47 -225.38) rotate(36.14)"/>
          <rect class="cls-4" x="338.73" y="209.77" width="3.16" height="3.16" transform="translate(166.65 -222.34) rotate(36.14)"/>
          <rect class="cls-4" x="335.18" y="214.64" width="3.16" height="3.16" transform="translate(168.84 -219.31) rotate(36.14)"/>
          <rect class="cls-4" x="331.62" y="219.51" width="3.16" height="3.16" transform="translate(171.03 -216.27) rotate(36.14)"/>
          <rect class="cls-4" x="328.07" y="224.38" width="3.16" height="3.16" transform="translate(173.22 -213.24) rotate(36.14)"/>
          <rect class="cls-4" x="324.51" y="229.24" width="3.16" height="3.16" transform="translate(175.4 -210.21) rotate(36.14)"/>
          <rect class="cls-4" x="320.96" y="234.11" width="3.16" height="3.16" transform="translate(177.59 -207.17) rotate(36.14)"/>
          <rect class="cls-4" x="317.4" y="238.98" width="3.16" height="3.16" transform="translate(179.78 -204.14) rotate(36.14)"/>
          <rect class="cls-4" x="313.84" y="243.85" width="3.16" height="3.16" transform="translate(181.97 -201.1) rotate(36.14)"/>
          <rect class="cls-4" x="310.29" y="248.72" width="3.16" height="3.16" transform="translate(184.15 -198.07) rotate(36.14)"/>
          <rect class="cls-4" x="306.73" y="253.59" width="3.16" height="3.16" transform="translate(186.35 -195.04) rotate(36.14)"/>
          <rect class="cls-4" x="303.18" y="258.46" width="3.16" height="3.16" transform="translate(188.53 -192) rotate(36.14)"/>
          <rect class="cls-4" x="299.62" y="263.33" width="3.16" height="3.16" transform="translate(190.72 -188.97) rotate(36.14)"/>
          <rect class="cls-4" x="296.06" y="268.19" width="3.16" height="3.16" transform="translate(192.91 -185.93) rotate(36.14)"/>
          <rect class="cls-4" x="292.51" y="273.06" width="3.16" height="3.16" transform="translate(195.1 -182.9) rotate(36.14)"/>
          <rect class="cls-4" x="288.95" y="277.93" width="3.16" height="3.16" transform="translate(197.28 -179.86) rotate(36.14)"/>
          <rect class="cls-4" x="285.4" y="282.8" width="3.16" height="3.16" transform="translate(199.46 -176.83) rotate(36.14)"/>
          <rect class="cls-4" x="281.84" y="287.67" width="3.16" height="3.16" transform="translate(201.65 -173.8) rotate(36.14)"/>
          <rect class="cls-4" x="278.28" y="292.54" width="3.16" height="3.16" transform="translate(203.84 -170.76) rotate(36.14)"/>
          <rect class="cls-4" x="274.73" y="297.41" width="3.16" height="3.16" transform="translate(206.03 -167.73) rotate(36.14)"/>
          <rect class="cls-4" x="271.17" y="302.28" width="3.16" height="3.16" transform="translate(208.21 -164.69) rotate(36.14)"/>
          <rect class="cls-4" x="267.62" y="307.14" width="3.16" height="3.16" transform="translate(210.4 -161.66) rotate(36.14)"/>
          <rect class="cls-4" x="264.06" y="312.01" width="3.16" height="3.16" transform="translate(212.59 -158.62) rotate(36.14)"/>
          <rect class="cls-4" x="260.51" y="316.88" width="3.16" height="3.16" transform="translate(214.77 -155.59) rotate(36.14)"/>
          <rect class="cls-4" x="256.95" y="321.75" width="3.16" height="3.16" transform="translate(216.96 -152.56) rotate(36.14)"/>
          <rect class="cls-4" x="253.39" y="326.62" width="3.16" height="3.16" transform="translate(219.15 -149.52) rotate(36.14)"/>
          <rect class="cls-4" x="249.84" y="331.49" width="3.16" height="3.16" transform="translate(221.34 -146.49) rotate(36.14)"/>
          <rect class="cls-4" x="246.28" y="336.36" width="3.16" height="3.16" transform="translate(223.52 -143.45) rotate(36.14)"/>
          <rect class="cls-4" x="242.73" y="341.23" width="3.16" height="3.16" transform="translate(225.72 -140.42) rotate(36.14)"/>
          <rect class="cls-4" x="239.17" y="346.09" width="3.16" height="3.16" transform="translate(227.91 -137.39) rotate(36.14)"/>
          <rect class="cls-4" x="235.61" y="350.96" width="3.16" height="3.16" transform="translate(230.09 -134.35) rotate(36.14)"/>
          <rect class="cls-4" x="232.06" y="355.83" width="3.16" height="3.16" transform="translate(232.28 -131.32) rotate(36.14)"/>
          <rect class="cls-4" x="228.5" y="360.7" width="3.16" height="3.16" transform="translate(234.47 -128.28) rotate(36.14)"/>
          <rect class="cls-4" x="224.95" y="365.57" width="3.16" height="3.16" transform="translate(236.65 -125.25) rotate(36.14)"/>
          <rect class="cls-4" x="221.39" y="370.44" width="3.16" height="3.16" transform="translate(238.83 -122.21) rotate(36.14)"/>
          <path class="cls-4" d="M220.92,377.52l-1.16,1.58-2.55-1.87,1.86-2.55,2.56,1.86-.57.78" transform="translate(-23.49 -62.3)"/>
        </g>
        <g>
          <rect class="cls-4" x="383.7" y="63.43" width="3.16" height="3.16" transform="translate(89 -277.03) rotate(36.14)"/>
          <rect class="cls-4" x="380.14" y="68.3" width="3.16" height="3.16" transform="translate(91.19 -273.99) rotate(36.14)"/>
          <rect class="cls-4" x="376.59" y="73.17" width="3.16" height="3.16" transform="translate(93.38 -270.96) rotate(36.14)"/>
          <rect class="cls-4" x="373.03" y="78.04" width="3.16" height="3.16" transform="translate(95.57 -267.93) rotate(36.14)"/>
          <rect class="cls-4" x="369.48" y="82.9" width="3.16" height="3.16" transform="translate(97.75 -264.89) rotate(36.14)"/>
          <rect class="cls-4" x="365.92" y="87.77" width="3.16" height="3.16" transform="translate(99.94 -261.86) rotate(36.14)"/>
          <rect class="cls-4" x="362.36" y="92.64" width="3.16" height="3.16" transform="translate(102.12 -258.82) rotate(36.14)"/>
          <rect class="cls-4" x="358.81" y="97.51" width="3.16" height="3.16" transform="translate(104.31 -255.78) rotate(36.14)"/>
          <rect class="cls-4" x="355.25" y="102.38" width="3.16" height="3.16" transform="translate(106.5 -252.75) rotate(36.14)"/>
          <rect class="cls-4" x="351.7" y="107.25" width="3.16" height="3.16" transform="translate(108.68 -249.72) rotate(36.14)"/>
          <rect class="cls-4" x="348.14" y="112.12" width="3.16" height="3.16" transform="translate(110.87 -246.68) rotate(36.14)"/>
          <rect class="cls-4" x="344.58" y="116.99" width="3.16" height="3.16" transform="translate(113.06 -243.65) rotate(36.14)"/>
          <rect class="cls-4" x="341.03" y="121.85" width="3.16" height="3.16" transform="translate(115.25 -240.61) rotate(36.14)"/>
          <rect class="cls-4" x="337.47" y="126.72" width="3.16" height="3.16" transform="translate(117.43 -237.58) rotate(36.14)"/>
          <rect class="cls-4" x="333.92" y="131.59" width="3.16" height="3.16" transform="translate(119.62 -234.55) rotate(36.14)"/>
          <rect class="cls-4" x="330.36" y="136.46" width="3.16" height="3.16" transform="translate(121.81 -231.51) rotate(36.14)"/>
          <rect class="cls-4" x="326.8" y="141.33" width="3.16" height="3.16" transform="translate(123.99 -228.48) rotate(36.14)"/>
          <rect class="cls-4" x="323.25" y="146.2" width="3.16" height="3.16" transform="translate(126.18 -225.44) rotate(36.14)"/>
          <rect class="cls-4" x="319.69" y="151.07" width="3.16" height="3.16" transform="matrix(0.81, 0.59, -0.59, 0.81, 128.37, -222.41)"/>
          <rect class="cls-4" x="316.14" y="155.94" width="3.16" height="3.16" transform="translate(130.56 -219.38) rotate(36.14)"/>
          <rect class="cls-4" x="312.58" y="160.8" width="3.16" height="3.16" transform="translate(132.75 -216.34) rotate(36.14)"/>
          <rect class="cls-4" x="309.03" y="165.67" width="3.16" height="3.16" transform="translate(134.94 -213.31) rotate(36.14)"/>
          <rect class="cls-4" x="305.47" y="170.54" width="3.16" height="3.16" transform="translate(137.12 -210.27) rotate(36.14)"/>
          <rect class="cls-4" x="301.91" y="175.41" width="3.16" height="3.16" transform="translate(139.31 -207.24) rotate(36.14)"/>
          <rect class="cls-4" x="298.36" y="180.28" width="3.16" height="3.16" transform="translate(141.49 -204.2) rotate(36.14)"/>
          <rect class="cls-4" x="294.8" y="185.15" width="3.16" height="3.16" transform="translate(143.68 -201.17) rotate(36.14)"/>
          <rect class="cls-4" x="291.25" y="190.02" width="3.16" height="3.16" transform="translate(145.87 -198.14) rotate(36.14)"/>
          <rect class="cls-4" x="287.69" y="194.89" width="3.16" height="3.16" transform="translate(148.05 -195.1) rotate(36.14)"/>
          <rect class="cls-4" x="284.13" y="199.75" width="3.16" height="3.16" transform="translate(150.24 -192.07) rotate(36.14)"/>
          <rect class="cls-4" x="280.58" y="204.62" width="3.16" height="3.16" transform="translate(152.43 -189.03) rotate(36.14)"/>
          <rect class="cls-4" x="277.02" y="209.49" width="3.16" height="3.16" transform="translate(154.62 -186) rotate(36.14)"/>
          <rect class="cls-4" x="273.47" y="214.36" width="3.16" height="3.16" transform="translate(156.8 -182.96) rotate(36.14)"/>
          <rect class="cls-4" x="269.91" y="219.23" width="3.16" height="3.16" transform="translate(158.99 -179.93) rotate(36.14)"/>
          <rect class="cls-4" x="266.35" y="224.1" width="3.16" height="3.16" transform="translate(161.18 -176.9) rotate(36.14)"/>
          <rect class="cls-4" x="262.8" y="228.97" width="3.16" height="3.16" transform="translate(163.36 -173.86) rotate(36.14)"/>
          <rect class="cls-4" x="259.24" y="233.84" width="3.16" height="3.16" transform="translate(165.55 -170.83) rotate(36.14)"/>
          <rect class="cls-4" x="255.69" y="238.7" width="3.16" height="3.16" transform="translate(167.74 -167.79) rotate(36.14)"/>
          <rect class="cls-4" x="252.13" y="243.57" width="3.16" height="3.16" transform="translate(169.93 -164.76) rotate(36.14)"/>
          <rect class="cls-4" x="248.57" y="248.44" width="3.16" height="3.16" transform="translate(172.12 -161.73) rotate(36.14)"/>
          <rect class="cls-4" x="245.02" y="253.31" width="3.16" height="3.16" transform="translate(174.31 -158.69) rotate(36.14)"/>
          <rect class="cls-4" x="241.46" y="258.18" width="3.16" height="3.16" transform="translate(176.49 -155.66) rotate(36.14)"/>
          <rect class="cls-4" x="237.91" y="263.05" width="3.16" height="3.16" transform="translate(178.68 -152.62) rotate(36.14)"/>
          <rect class="cls-4" x="234.35" y="267.92" width="3.16" height="3.16" transform="translate(180.86 -149.59) rotate(36.14)"/>
          <rect class="cls-4" x="230.8" y="272.79" width="3.16" height="3.16" transform="translate(183.05 -146.55) rotate(36.14)"/>
          <rect class="cls-4" x="227.24" y="277.65" width="3.16" height="3.16" transform="translate(185.24 -143.52) rotate(36.14)"/>
          <rect class="cls-4" x="223.68" y="282.52" width="3.16" height="3.16" transform="translate(187.42 -140.49) rotate(36.14)"/>
          <rect class="cls-4" x="220.13" y="287.39" width="3.16" height="3.16" transform="translate(189.61 -137.45) rotate(36.14)"/>
          <rect class="cls-4" x="216.57" y="292.26" width="3.16" height="3.16" transform="translate(191.8 -134.42) rotate(36.14)"/>
          <rect class="cls-4" x="213.02" y="297.13" width="3.16" height="3.16" transform="translate(193.99 -131.38) rotate(36.14)"/>
          <rect class="cls-4" x="209.46" y="302" width="3.16" height="3.16" transform="translate(196.17 -128.35) rotate(36.14)"/>
          <rect class="cls-4" x="205.9" y="306.87" width="3.16" height="3.16" transform="translate(198.36 -125.31) rotate(36.14)"/>
          <rect class="cls-4" x="202.35" y="311.74" width="3.16" height="3.16" transform="translate(200.55 -122.28) rotate(36.14)"/>
          <rect class="cls-4" x="198.79" y="316.6" width="3.16" height="3.16" transform="translate(202.73 -119.25) rotate(36.14)"/>
          <rect class="cls-4" x="195.24" y="321.47" width="3.16" height="3.16" transform="translate(204.92 -116.21) rotate(36.14)"/>
          <rect class="cls-4" x="191.68" y="326.34" width="3.16" height="3.16" transform="translate(207.11 -113.18) rotate(36.14)"/>
          <rect class="cls-4" x="188.12" y="331.21" width="3.16" height="3.16" transform="translate(209.3 -110.14) rotate(36.14)"/>
          <rect class="cls-4" x="184.57" y="336.08" width="3.16" height="3.16" transform="translate(211.49 -107.11) rotate(36.14)"/>
          <rect class="cls-4" x="181.01" y="340.95" width="3.16" height="3.16" transform="translate(213.68 -104.07) rotate(36.14)"/>
          <rect class="cls-4" x="177.46" y="345.82" width="3.16" height="3.16" transform="translate(215.87 -101.04) rotate(36.14)"/>
        </g>
      </g>
    </g>
  </g>
  <g id="Icons">
    <g>
      <g>
        <path class="cls-4" d="M239.5,111.85l-7.67-4.59v8.2" transform="translate(-23.49 -62.3)"/>
        <path class="cls-4" d="M231.83,120.21V125" transform="translate(-23.49 -62.3)"/>
        <path class="cls-4" d="M231.83,125v6.93l7.78-4.66" transform="translate(-23.49 -62.3)"/>
        <path class="cls-4" d="M243.49,124.91l8.93-5.34-9.74-5.82" transform="translate(-23.49 -62.3)"/>
      </g>
      <g>
        <path class="cls-4" d="M31.15,297.54v-4.27H36v5.06" transform="translate(-23.49 -62.3)"/>
        <path class="cls-4" d="M36,302v12.91H34.32" transform="translate(-23.49 -62.3)"/>
        <path class="cls-4" d="M33.26,314.93H31.15v-8.16" transform="translate(-23.49 -62.3)"/>
        <path class="cls-4" d="M31.15,303.08v-3.43" transform="translate(-23.49 -62.3)"/>
        <path class="cls-4" d="M41.77,295.69v-2.42h4.84v4.53" transform="translate(-23.49 -62.3)"/>
        <path class="cls-4" d="M46.61,303.08v4.22" transform="translate(-23.49 -62.3)"/>
        <path class="cls-4" d="M46.61,309.41v5.52H41.77V297.54" transform="translate(-23.49 -62.3)"/>
      </g>
      <g>
        <path class="cls-4" d="M442.9,286.85h3.56" transform="translate(-23.49 -62.3)"/>
        <path class="cls-4" d="M450.34,286.85h6.74v21.28h-5.44" transform="translate(-23.49 -62.3)"/>
        <path class="cls-4" d="M447.11,308.13H435.79v-9" transform="translate(-23.49 -62.3)"/>
        <path class="cls-4" d="M435.79,296.83v-10H440" transform="translate(-23.49 -62.3)"/>
      </g>
    </g>
  </g>
  <g id="Floor">
    <line class="cls-4" x1="0.5" y1="327.7" x2="452.52" y2="327.7"/>
  </g>
  <g id="Wire">
    <path class="cls-5" d="M370.58,420c-29.95,0-29.95,11.67-178.75,11.67-93.92,0-129.1-4-125.84-12,.58-1.41,9.4-5.77.2-7.83-5.09-1.15-24.13-2.06-28.55-5.6-5.1-4.1,10-8.51,36.5-8.51" transform="translate(-23.49 -62.3)"/>
  </g>
  <g id="Device_1" data-name="Device 1">
    <g>
      <rect class="cls-6" x="62.56" y="102.53" width="327.91" height="223.44" rx="3.46"/>
      <rect class="cls-7" x="66.62" y="112.33" width="319.79" height="198.71"/>
      <rect class="cls-8" x="216.77" y="316.03" width="19.48" height="3.65" rx="1.03"/>
      <circle class="cls-8" cx="226.51" cy="107.2" r="2.61"/>
      <g>
        <g>
          <g>
            <polygon class="cls-4" points="282.1 282.9 282.1 293.33 289.82 288.12 282.1 282.9"/>
            <polygon class="cls-4" points="290.26 282.9 290.26 293.33 297.98 288.12 290.26 282.9"/>
          </g>
          <g>
            <polygon class="cls-4" points="222.5 293.33 222.5 282.9 214.77 288.12 222.5 293.33"/>
            <line class="cls-1" x1="214.35" y1="282.9" x2="214.35" y2="293.33"/>
            <line class="cls-1" x1="212.14" y1="282.9" x2="212.14" y2="293.33"/>
          </g>
          <g>
            <polygon class="cls-4" points="309.1 282.9 309.1 293.33 316.83 288.12 309.1 282.9"/>
            <line class="cls-1" x1="317.25" y1="293.33" x2="317.25" y2="282.9"/>
            <line class="cls-1" x1="319.46" y1="293.33" x2="319.46" y2="282.9"/>
          </g>
          <g>
            <polygon class="cls-4" points="249.5 293.33 249.5 282.9 241.78 288.12 249.5 293.33"/>
            <polygon class="cls-4" points="241.34 293.33 241.34 282.9 233.62 288.12 241.34 293.33"/>
          </g>
          <polygon class="cls-4" points="261.94 282.9 261.94 293.33 269.66 288.12 261.94 282.9"/>
        </g>
        <rect class="cls-9" x="68.47" y="113.82" width="316.08" height="6.85"/>
        <g>
          <line class="cls-4" x1="68.47" y1="120.67" x2="384.55" y2="120.67"/>
          <line class="cls-4" x1="74.28" y1="117.08" x2="84.52" y2="117.08"/>
          <line class="cls-4" x1="95.71" y1="117.08" x2="104.92" y2="117.08"/>
          <line class="cls-4" x1="116.86" y1="117.08" x2="125.83" y2="117.08"/>
        </g>
        <rect class="cls-6" x="140.81" y="120.67" width="4.73" height="188.84"/>
        <rect class="cls-1" x="140.81" y="187.13" width="4.73" height="13.07" rx="1.33"/>
        <rect class="cls-6" x="155.5" y="129.81" width="220.6" height="145.25"/>
        <polygon class="cls-1" points="253.49 190.13 253.49 214.75 278.11 202.44 253.49 190.13"/>
        <g>
          <g>
            <rect class="cls-10" x="75.56" y="127.9" width="23.55" height="15.51"/>
            <polygon class="cls-6" points="84.73 133.05 84.73 138.25 89.93 135.65 84.73 133.05"/>
            <g class="cls-11">
              <rect x="73.31" y="127.9" width="1.63" height="1.36"/>
              <rect x="73.31" y="130.26" width="1.63" height="1.36"/>
              <rect x="73.31" y="132.62" width="1.63" height="1.36"/>
              <rect x="73.31" y="134.97" width="1.63" height="1.36"/>
              <rect x="73.31" y="137.33" width="1.63" height="1.36"/>
              <rect x="73.31" y="139.69" width="1.63" height="1.36"/>
              <rect x="73.31" y="142.05" width="1.63" height="1.36"/>
              <rect x="99.72" y="127.9" width="1.63" height="1.36"/>
              <rect x="99.72" y="130.26" width="1.63" height="1.36"/>
              <rect x="99.72" y="132.62" width="1.63" height="1.36"/>
              <rect x="99.72" y="134.97" width="1.63" height="1.36"/>
              <rect x="99.72" y="137.33" width="1.63" height="1.36"/>
              <rect x="99.72" y="139.69" width="1.63" height="1.36"/>
              <rect x="99.72" y="142.05" width="1.63" height="1.36"/>
            </g>
          </g>
          <line class="cls-4" x1="80.86" y1="147.11" x2="93.8" y2="147.11"/>
        </g>
        <g>
          <g>
            <rect class="cls-10" x="108.6" y="127.9" width="23.55" height="15.51"/>
            <polygon class="cls-6" points="117.77 133.05 117.77 138.25 122.97 135.65 117.77 133.05"/>
            <g class="cls-11">
              <rect x="106.35" y="127.9" width="1.63" height="1.36"/>
              <rect x="106.35" y="130.26" width="1.63" height="1.36"/>
              <rect x="106.35" y="132.62" width="1.63" height="1.36"/>
              <rect x="106.35" y="134.97" width="1.63" height="1.36"/>
              <rect x="106.35" y="137.33" width="1.63" height="1.36"/>
              <rect x="106.35" y="139.69" width="1.63" height="1.36"/>
              <rect x="106.35" y="142.05" width="1.63" height="1.36"/>
              <rect x="132.76" y="127.9" width="1.63" height="1.36"/>
              <rect x="132.76" y="130.26" width="1.63" height="1.36"/>
              <rect x="132.76" y="132.62" width="1.63" height="1.36"/>
              <rect x="132.76" y="134.97" width="1.63" height="1.36"/>
              <rect x="132.76" y="137.33" width="1.63" height="1.36"/>
              <rect x="132.76" y="139.69" width="1.63" height="1.36"/>
              <rect x="132.76" y="142.05" width="1.63" height="1.36"/>
            </g>
          </g>
          <line class="cls-4" x1="113.91" y1="147.11" x2="126.84" y2="147.11"/>
        </g>
        <g>
          <g>
            <rect class="cls-10" x="75.56" y="154.27" width="23.55" height="15.51"/>
            <polygon class="cls-6" points="84.73 159.42 84.73 164.62 89.93 162.02 84.73 159.42"/>
            <g class="cls-11">
              <rect x="73.31" y="154.27" width="1.63" height="1.36"/>
              <rect x="73.31" y="156.62" width="1.63" height="1.36"/>
              <rect x="73.31" y="158.98" width="1.63" height="1.36"/>
              <rect x="73.31" y="161.34" width="1.63" height="1.36"/>
              <rect x="73.31" y="163.7" width="1.63" height="1.36"/>
              <rect x="73.31" y="166.05" width="1.63" height="1.36"/>
              <rect x="73.31" y="168.41" width="1.63" height="1.36"/>
              <rect x="99.72" y="154.27" width="1.63" height="1.36"/>
              <rect x="99.72" y="156.62" width="1.63" height="1.36"/>
              <rect x="99.72" y="158.98" width="1.63" height="1.36"/>
              <rect x="99.72" y="161.34" width="1.63" height="1.36"/>
              <rect x="99.72" y="163.7" width="1.63" height="1.36"/>
              <rect x="99.72" y="166.05" width="1.63" height="1.36"/>
              <rect x="99.72" y="168.41" width="1.63" height="1.36"/>
            </g>
          </g>
          <line class="cls-4" x1="80.86" y1="173.47" x2="93.8" y2="173.47"/>
        </g>
        <g>
          <g>
            <rect class="cls-10" x="108.6" y="154.27" width="23.55" height="15.51"/>
            <polygon class="cls-6" points="117.77 159.42 117.77 164.62 122.97 162.02 117.77 159.42"/>
            <g class="cls-11">
              <rect x="106.35" y="154.27" width="1.63" height="1.36"/>
              <rect x="106.35" y="156.62" width="1.63" height="1.36"/>
              <rect x="106.35" y="158.98" width="1.63" height="1.36"/>
              <rect x="106.35" y="161.34" width="1.63" height="1.36"/>
              <rect x="106.35" y="163.7" width="1.63" height="1.36"/>
              <rect x="106.35" y="166.05" width="1.63" height="1.36"/>
              <rect x="106.35" y="168.41" width="1.63" height="1.36"/>
              <rect x="132.76" y="154.27" width="1.63" height="1.36"/>
              <rect x="132.76" y="156.62" width="1.63" height="1.36"/>
              <rect x="132.76" y="158.98" width="1.63" height="1.36"/>
              <rect x="132.76" y="161.34" width="1.63" height="1.36"/>
              <rect x="132.76" y="163.7" width="1.63" height="1.36"/>
              <rect x="132.76" y="166.05" width="1.63" height="1.36"/>
              <rect x="132.76" y="168.41" width="1.63" height="1.36"/>
            </g>
          </g>
          <line class="cls-4" x1="113.91" y1="173.47" x2="126.84" y2="173.47"/>
        </g>
        <g>
          <g>
            <rect class="cls-10" x="75.56" y="180.63" width="23.55" height="15.51"/>
            <polygon class="cls-6" points="84.73 185.78 84.73 190.99 89.93 188.39 84.73 185.78"/>
            <g class="cls-11">
              <rect x="73.31" y="180.63" width="1.63" height="1.36"/>
              <rect x="73.31" y="182.99" width="1.63" height="1.36"/>
              <rect x="73.31" y="185.35" width="1.63" height="1.36"/>
              <rect x="73.31" y="187.71" width="1.63" height="1.36"/>
              <rect x="73.31" y="190.06" width="1.63" height="1.36"/>
              <rect x="73.31" y="192.42" width="1.63" height="1.36"/>
              <rect x="73.31" y="194.78" width="1.63" height="1.36"/>
              <rect x="99.72" y="180.63" width="1.63" height="1.36"/>
              <rect x="99.72" y="182.99" width="1.63" height="1.36"/>
              <rect x="99.72" y="185.35" width="1.63" height="1.36"/>
              <rect x="99.72" y="187.71" width="1.63" height="1.36"/>
              <rect x="99.72" y="190.06" width="1.63" height="1.36"/>
              <rect x="99.72" y="192.42" width="1.63" height="1.36"/>
              <rect x="99.72" y="194.78" width="1.63" height="1.36"/>
            </g>
          </g>
          <line class="cls-4" x1="80.86" y1="199.84" x2="93.8" y2="199.84"/>
        </g>
        <g>
          <g>
            <rect class="cls-10" x="108.6" y="180.63" width="23.55" height="15.51"/>
            <polygon class="cls-6" points="117.77 185.78 117.77 190.99 122.97 188.39 117.77 185.78"/>
            <g class="cls-11">
              <rect x="106.35" y="180.63" width="1.63" height="1.36"/>
              <rect x="106.35" y="182.99" width="1.63" height="1.36"/>
              <rect x="106.35" y="185.35" width="1.63" height="1.36"/>
              <rect x="106.35" y="187.71" width="1.63" height="1.36"/>
              <rect x="106.35" y="190.06" width="1.63" height="1.36"/>
              <rect x="106.35" y="192.42" width="1.63" height="1.36"/>
              <rect x="106.35" y="194.78" width="1.63" height="1.36"/>
              <rect x="132.76" y="180.63" width="1.63" height="1.36"/>
              <rect x="132.76" y="182.99" width="1.63" height="1.36"/>
              <rect x="132.76" y="185.35" width="1.63" height="1.36"/>
              <rect x="132.76" y="187.71" width="1.63" height="1.36"/>
              <rect x="132.76" y="190.06" width="1.63" height="1.36"/>
              <rect x="132.76" y="192.42" width="1.63" height="1.36"/>
              <rect x="132.76" y="194.78" width="1.63" height="1.36"/>
            </g>
          </g>
          <line class="cls-4" x1="113.91" y1="199.84" x2="126.84" y2="199.84"/>
        </g>
        <g>
          <g>
            <rect class="cls-10" x="75.56" y="207" width="23.55" height="15.51"/>
            <polygon class="cls-6" points="84.73 212.15 84.73 217.35 89.93 214.75 84.73 212.15"/>
            <g class="cls-11">
              <rect x="73.31" y="207" width="1.63" height="1.36"/>
              <rect x="73.31" y="209.36" width="1.63" height="1.36"/>
              <rect x="73.31" y="211.71" width="1.63" height="1.36"/>
              <rect x="73.31" y="214.07" width="1.63" height="1.36"/>
              <rect x="73.31" y="216.43" width="1.63" height="1.36"/>
              <rect x="73.31" y="218.79" width="1.63" height="1.36"/>
              <rect x="73.31" y="221.15" width="1.63" height="1.36"/>
              <rect x="99.72" y="207" width="1.63" height="1.36"/>
              <rect x="99.72" y="209.36" width="1.63" height="1.36"/>
              <rect x="99.72" y="211.71" width="1.63" height="1.36"/>
              <rect x="99.72" y="214.07" width="1.63" height="1.36"/>
              <rect x="99.72" y="216.43" width="1.63" height="1.36"/>
              <rect x="99.72" y="218.79" width="1.63" height="1.36"/>
              <rect x="99.72" y="221.15" width="1.63" height="1.36"/>
            </g>
          </g>
          <line class="cls-4" x1="80.86" y1="226.21" x2="93.8" y2="226.21"/>
        </g>
        <g>
          <g>
            <rect class="cls-10" x="108.6" y="207" width="23.55" height="15.51"/>
            <polygon class="cls-6" points="117.77 212.15 117.77 217.35 122.97 214.75 117.77 212.15"/>
            <g class="cls-11">
              <rect x="106.35" y="207" width="1.63" height="1.36"/>
              <rect x="106.35" y="209.36" width="1.63" height="1.36"/>
              <rect x="106.35" y="211.71" width="1.63" height="1.36"/>
              <rect x="106.35" y="214.07" width="1.63" height="1.36"/>
              <rect x="106.35" y="216.43" width="1.63" height="1.36"/>
              <rect x="106.35" y="218.79" width="1.63" height="1.36"/>
              <rect x="106.35" y="221.15" width="1.63" height="1.36"/>
              <rect x="132.76" y="207" width="1.63" height="1.36"/>
              <rect x="132.76" y="209.36" width="1.63" height="1.36"/>
              <rect x="132.76" y="211.71" width="1.63" height="1.36"/>
              <rect x="132.76" y="214.07" width="1.63" height="1.36"/>
              <rect x="132.76" y="216.43" width="1.63" height="1.36"/>
              <rect x="132.76" y="218.79" width="1.63" height="1.36"/>
              <rect x="132.76" y="221.15" width="1.63" height="1.36"/>
            </g>
          </g>
          <line class="cls-4" x1="113.91" y1="226.21" x2="126.84" y2="226.21"/>
        </g>
        <g>
          <g>
            <rect class="cls-10" x="75.56" y="233.37" width="23.55" height="15.51"/>
            <polygon class="cls-6" points="84.73 238.52 84.73 243.72 89.93 241.12 84.73 238.52"/>
            <g class="cls-11">
              <rect x="73.31" y="233.37" width="1.63" height="1.36"/>
              <rect x="73.31" y="235.72" width="1.63" height="1.36"/>
              <rect x="73.31" y="238.08" width="1.63" height="1.36"/>
              <rect x="73.31" y="240.44" width="1.63" height="1.36"/>
              <rect x="73.31" y="242.8" width="1.63" height="1.36"/>
              <rect x="73.31" y="245.15" width="1.63" height="1.36"/>
              <rect x="73.31" y="247.51" width="1.63" height="1.36"/>
              <rect x="99.72" y="233.37" width="1.63" height="1.36"/>
              <rect x="99.72" y="235.72" width="1.63" height="1.36"/>
              <rect x="99.72" y="238.08" width="1.63" height="1.36"/>
              <rect x="99.72" y="240.44" width="1.63" height="1.36"/>
              <rect x="99.72" y="242.8" width="1.63" height="1.36"/>
              <rect x="99.72" y="245.15" width="1.63" height="1.36"/>
              <rect x="99.72" y="247.51" width="1.63" height="1.36"/>
            </g>
          </g>
          <line class="cls-4" x1="80.86" y1="252.57" x2="93.8" y2="252.57"/>
        </g>
        <g>
          <g>
            <rect class="cls-10" x="108.6" y="233.37" width="23.55" height="15.51"/>
            <polygon class="cls-6" points="117.77 238.52 117.77 243.72 122.97 241.12 117.77 238.52"/>
            <g class="cls-11">
              <rect x="106.35" y="233.37" width="1.63" height="1.36"/>
              <rect x="106.35" y="235.72" width="1.63" height="1.36"/>
              <rect x="106.35" y="238.08" width="1.63" height="1.36"/>
              <rect x="106.35" y="240.44" width="1.63" height="1.36"/>
              <rect x="106.35" y="242.8" width="1.63" height="1.36"/>
              <rect x="106.35" y="245.15" width="1.63" height="1.36"/>
              <rect x="106.35" y="247.51" width="1.63" height="1.36"/>
              <rect x="132.76" y="233.37" width="1.63" height="1.36"/>
              <rect x="132.76" y="235.72" width="1.63" height="1.36"/>
              <rect x="132.76" y="238.08" width="1.63" height="1.36"/>
              <rect x="132.76" y="240.44" width="1.63" height="1.36"/>
              <rect x="132.76" y="242.8" width="1.63" height="1.36"/>
              <rect x="132.76" y="245.15" width="1.63" height="1.36"/>
              <rect x="132.76" y="247.51" width="1.63" height="1.36"/>
            </g>
          </g>
          <line class="cls-4" x1="113.91" y1="252.57" x2="126.84" y2="252.57"/>
        </g>
        <g>
          <g>
            <rect class="cls-10" x="75.56" y="259.73" width="23.55" height="15.51"/>
            <polygon class="cls-6" points="84.73 264.88 84.73 270.09 89.93 267.49 84.73 264.88"/>
            <g class="cls-11">
              <rect x="73.31" y="259.73" width="1.63" height="1.36"/>
              <rect x="73.31" y="262.09" width="1.63" height="1.36"/>
              <rect x="73.31" y="264.45" width="1.63" height="1.36"/>
              <rect x="73.31" y="266.81" width="1.63" height="1.36"/>
              <rect x="73.31" y="269.16" width="1.63" height="1.36"/>
              <rect x="73.31" y="271.52" width="1.63" height="1.36"/>
              <rect x="73.31" y="273.88" width="1.63" height="1.36"/>
              <rect x="99.72" y="259.73" width="1.63" height="1.36"/>
              <rect x="99.72" y="262.09" width="1.63" height="1.36"/>
              <rect x="99.72" y="264.45" width="1.63" height="1.36"/>
              <rect x="99.72" y="266.81" width="1.63" height="1.36"/>
              <rect x="99.72" y="269.16" width="1.63" height="1.36"/>
              <rect x="99.72" y="271.52" width="1.63" height="1.36"/>
              <rect x="99.72" y="273.88" width="1.63" height="1.36"/>
            </g>
          </g>
          <line class="cls-4" x1="80.86" y1="278.94" x2="93.8" y2="278.94"/>
        </g>
        <g>
          <g>
            <rect class="cls-10" x="108.6" y="259.73" width="23.55" height="15.51"/>
            <polygon class="cls-6" points="117.77 264.88 117.77 270.09 122.97 267.49 117.77 264.88"/>
            <g class="cls-11">
              <rect x="106.35" y="259.73" width="1.63" height="1.36"/>
              <rect x="106.35" y="262.09" width="1.63" height="1.36"/>
              <rect x="106.35" y="264.45" width="1.63" height="1.36"/>
              <rect x="106.35" y="266.81" width="1.63" height="1.36"/>
              <rect x="106.35" y="269.16" width="1.63" height="1.36"/>
              <rect x="106.35" y="271.52" width="1.63" height="1.36"/>
              <rect x="106.35" y="273.88" width="1.63" height="1.36"/>
              <rect x="132.76" y="259.73" width="1.63" height="1.36"/>
              <rect x="132.76" y="262.09" width="1.63" height="1.36"/>
              <rect x="132.76" y="264.45" width="1.63" height="1.36"/>
              <rect x="132.76" y="266.81" width="1.63" height="1.36"/>
              <rect x="132.76" y="269.16" width="1.63" height="1.36"/>
              <rect x="132.76" y="271.52" width="1.63" height="1.36"/>
              <rect x="132.76" y="273.88" width="1.63" height="1.36"/>
            </g>
          </g>
          <line class="cls-4" x1="113.91" y1="278.94" x2="126.84" y2="278.94"/>
        </g>
        <g>
          <g>
            <rect class="cls-10" x="75.56" y="286.1" width="23.55" height="15.51"/>
            <polygon class="cls-6" points="84.73 291.25 84.73 296.45 89.93 293.85 84.73 291.25"/>
            <g class="cls-11">
              <rect x="73.31" y="286.1" width="1.63" height="1.36"/>
              <rect x="73.31" y="288.46" width="1.63" height="1.36"/>
              <rect x="73.31" y="290.81" width="1.63" height="1.36"/>
              <rect x="73.31" y="293.17" width="1.63" height="1.36"/>
              <rect x="73.31" y="295.53" width="1.63" height="1.36"/>
              <rect x="73.31" y="297.89" width="1.63" height="1.36"/>
              <rect x="73.31" y="300.25" width="1.63" height="1.36"/>
              <rect x="99.72" y="286.1" width="1.63" height="1.36"/>
              <rect x="99.72" y="288.46" width="1.63" height="1.36"/>
              <rect x="99.72" y="290.81" width="1.63" height="1.36"/>
              <rect x="99.72" y="293.17" width="1.63" height="1.36"/>
              <rect x="99.72" y="295.53" width="1.63" height="1.36"/>
              <rect x="99.72" y="297.89" width="1.63" height="1.36"/>
              <rect x="99.72" y="300.25" width="1.63" height="1.36"/>
            </g>
          </g>
          <line class="cls-4" x1="80.86" y1="305.31" x2="93.8" y2="305.31"/>
        </g>
        <g>
          <g>
            <rect class="cls-10" x="108.6" y="286.1" width="23.55" height="15.51"/>
            <polygon class="cls-6" points="117.77 291.25 117.77 296.45 122.97 293.85 117.77 291.25"/>
            <g class="cls-11">
              <rect x="106.35" y="286.1" width="1.63" height="1.36"/>
              <rect x="106.35" y="288.46" width="1.63" height="1.36"/>
              <rect x="106.35" y="290.81" width="1.63" height="1.36"/>
              <rect x="106.35" y="293.17" width="1.63" height="1.36"/>
              <rect x="106.35" y="295.53" width="1.63" height="1.36"/>
              <rect x="106.35" y="297.89" width="1.63" height="1.36"/>
              <rect x="106.35" y="300.25" width="1.63" height="1.36"/>
              <rect x="132.76" y="286.1" width="1.63" height="1.36"/>
              <rect x="132.76" y="288.46" width="1.63" height="1.36"/>
              <rect x="132.76" y="290.81" width="1.63" height="1.36"/>
              <rect x="132.76" y="293.17" width="1.63" height="1.36"/>
              <rect x="132.76" y="295.53" width="1.63" height="1.36"/>
              <rect x="132.76" y="297.89" width="1.63" height="1.36"/>
              <rect x="132.76" y="300.25" width="1.63" height="1.36"/>
            </g>
          </g>
          <line class="cls-4" x1="113.91" y1="305.31" x2="126.84" y2="305.31"/>
        </g>
      </g>
      <g>
        <path class="cls-12" d="M415.46,400.13H84.54c-9.54,0-37.93-4-37.93-4H453.39S425,400.13,415.46,400.13Z" transform="translate(-23.49 -62.3)"/>
        <path class="cls-13" d="M453.39,396.1H46.61a1.12,1.12,0,0,1-.23-2.21l38.16-8.16H415.46l38.16,8.16A1.12,1.12,0,0,1,453.39,396.1Z" transform="translate(-23.49 -62.3)"/>
        <polygon class="cls-4" points="407.68 328.62 45.34 328.62 61.83 324.74 391.19 324.74 407.68 328.62"/>
      </g>
    </g>
  </g>
  <g id="Device_2" data-name="Device 2">
    <g>
      <g>
        <path class="cls-2" d="M472.07,364.4a15.45,15.45,0,0,1-.93,5.44c-1,2.61-2.64,4.31-4.53,4.31h-88.9l-2.58-13.37,1-.41,10.06-4.2a19.66,19.66,0,0,1,7.6-1.54h72.86c1.49,0,2.84,1.07,3.83,2.8A14.44,14.44,0,0,1,472.07,364.4Z" transform="translate(-23.49 -62.3)"/>
        <g class="cls-14">
          <path class="cls-15" d="M470.44,357.43H404.19a7.55,7.55,0,0,0-3.17.7l-10.89,5.06-14-2.82,10.06-4.2a19.66,19.66,0,0,1,7.6-1.54h72.86C468.1,354.63,469.45,355.7,470.44,357.43Z" transform="translate(-23.49 -62.3)"/>
          <path class="cls-16" d="M471.14,369.84c-1,2.61-2.64,4.31-4.53,4.31h-58.8c-8.1-5.21-15-9.76-15-9.76l3.36-1.85a7.25,7.25,0,0,1,3.47-.89h52.39a3.26,3.26,0,0,1,2.32,1l5.62,5.62a5.41,5.41,0,0,0,3.84,1.6Z" transform="translate(-23.49 -62.3)"/>
        </g>
        <path class="cls-4" d="M472.07,364.4a15.45,15.45,0,0,1-.93,5.44c-1,2.61-2.64,4.31-4.53,4.31h-88.9l-2.58-13.37,1-.41,10.06-4.2a19.66,19.66,0,0,1,7.6-1.54h72.86c1.49,0,2.84,1.07,3.83,2.8A14.44,14.44,0,0,1,472.07,364.4Z" transform="translate(-23.49 -62.3)"/>
      </g>
      <path class="cls-4" d="M458.85,354.63c3,0,5.47,4.37,5.47,9.77s-2.45,9.76-5.47,9.76" transform="translate(-23.49 -62.3)"/>
      <g>
        <path class="cls-2" d="M387.22,359.17H348.43v54.6h38.79c8.07,0,14.62-12.22,14.62-27.3S395.29,359.17,387.22,359.17Z" transform="translate(-23.49 -62.3)"/>
        <g class="cls-17">
          <path class="cls-18" d="M387.22,359.17H348.43v54.6h38.79c8.07,0,14.62-12.22,14.62-27.3S395.29,359.17,387.22,359.17Z" transform="translate(-23.49 -62.3)"/>
        </g>
        <path class="cls-4" d="M387.22,359.17H348.43v54.6h38.79c8.07,0,14.62-12.22,14.62-27.3S395.29,359.17,387.22,359.17Z" transform="translate(-23.49 -62.3)"/>
      </g>
      <ellipse class="cls-1" cx="324.94" cy="324.17" rx="14.62" ry="27.3"/>
      <g>
        <g>
          <ellipse class="cls-2" cx="322.51" cy="324.17" rx="13.73" ry="25.63"/>
          <g class="cls-19">
            <ellipse class="cls-18" cx="322.51" cy="324.17" rx="13.73" ry="25.63"/>
          </g>
          <ellipse class="cls-4" cx="322.51" cy="324.17" rx="13.73" ry="25.63"/>
        </g>
        <g>
          <ellipse class="cls-2" cx="319.67" cy="324.17" rx="11.76" ry="24.06"/>
          <g class="cls-20">
            <ellipse class="cls-15" cx="319.67" cy="324.17" rx="11.76" ry="24.06"/>
          </g>
          <ellipse class="cls-4" cx="319.67" cy="324.17" rx="11.76" ry="24.06"/>
        </g>
        <path class="cls-21" d="M352.94,386.47a44.09,44.09,0,0,1-1.11,10c-1.35,5.72-3.82,9.94-6.75,11.24a4.7,4.7,0,0,1-1.92.43c-5.41,0-9.79-9.72-9.79-21.71s4.38-21.71,9.79-21.71a4.7,4.7,0,0,1,1.92.43c2.93,1.3,5.4,5.53,6.75,11.25A44,44,0,0,1,352.94,386.47Z" transform="translate(-23.49 -62.3)"/>
        <path class="cls-22" d="M352.94,386.48c0,10.52-3.38,19.29-7.86,21.27-4.48-2-7.87-10.75-7.87-21.27s3.39-19.31,7.87-21.29C349.56,367.17,352.94,376,352.94,386.48Z" transform="translate(-23.49 -62.3)"/>
        <path class="cls-21" d="M348.91,396.51h-5.82a2.46,2.46,0,0,1-2.46-2.45V378.89a2.45,2.45,0,0,1,2.46-2.45h5.82a2.45,2.45,0,0,0-2.46,2.45v15.17A2.46,2.46,0,0,0,348.91,396.51Z" transform="translate(-23.49 -62.3)"/>
        <line class="cls-4" x1="325.42" y1="314.14" x2="328.34" y2="314.14"/>
        <line class="cls-4" x1="325.42" y1="334.21" x2="328.34" y2="334.21"/>
      </g>
      <g>
        <path class="cls-2" d="M454.68,367.23v55.49a10.93,10.93,0,0,1-10.93,10.93H368.06a10.94,10.94,0,0,1-10.94-10.93v-9H362c8.08,0,14.62-12.21,14.62-27.29,0-9.34-2.51-17.59-6.34-22.51h81.14A3.26,3.26,0,0,1,454.68,367.23Z" transform="translate(-23.49 -62.3)"/>
        <g class="cls-23">
          <path class="cls-16" d="M376.62,386.48v17.27a24.86,24.86,0,0,1-12,21.29l-5.81,3.51a10.84,10.84,0,0,1-1.69-5.83v-9H362C370.08,413.77,376.62,401.56,376.62,386.48Z" transform="translate(-23.49 -62.3)"/>
          <path class="cls-18" d="M454.68,367.23v55.49a10.93,10.93,0,0,1-10.93,10.93H368.06a10.83,10.83,0,0,1-6.71-2.3h12.39a9,9,0,0,0,9-9V369.92a3.77,3.77,0,0,0-3.77-3.78h-7.17a21.13,21.13,0,0,0-1.48-2.17h81.14A3.26,3.26,0,0,1,454.68,367.23Z" transform="translate(-23.49 -62.3)"/>
        </g>
        <path class="cls-4" d="M454.68,367.23v55.49a10.93,10.93,0,0,1-10.93,10.93H368.06a10.94,10.94,0,0,1-10.94-10.93v-9H362c8.08,0,14.62-12.21,14.62-27.29,0-9.34-2.51-17.59-6.34-22.51h81.14A3.26,3.26,0,0,1,454.68,367.23Z" transform="translate(-23.49 -62.3)"/>
      </g>
      <g>
        <path class="cls-2" d="M464.48,394.73a70.49,70.49,0,0,1-4.67,25.21,4.22,4.22,0,0,1-.9,1.39,4.75,4.75,0,0,1-.6.49,4,4,0,0,1-2.29.72H392a5.75,5.75,0,0,1-5.76-5.75V372.67a5.76,5.76,0,0,1,5.76-5.75h64a4.05,4.05,0,0,1,2.89,1.21,4.16,4.16,0,0,1,.9,1.4A70.36,70.36,0,0,1,464.48,394.73Z" transform="translate(-23.49 -62.3)"/>
        <g class="cls-24">
          <path class="cls-15" d="M464.48,394.73a70.49,70.49,0,0,1-4.67,25.21,4.22,4.22,0,0,1-.9,1.39H398a6,6,0,0,1-6-6V374.12a6,6,0,0,1,6-6h60.87a4.16,4.16,0,0,1,.9,1.4A70.36,70.36,0,0,1,464.48,394.73Z" transform="translate(-23.49 -62.3)"/>
        </g>
        <path class="cls-4" d="M464.48,394.73a70.49,70.49,0,0,1-4.67,25.21,4.22,4.22,0,0,1-.9,1.39,4.75,4.75,0,0,1-.6.49,4,4,0,0,1-2.29.72H392a5.75,5.75,0,0,1-5.76-5.75V372.67a5.76,5.76,0,0,1,5.76-5.75h64a4.05,4.05,0,0,1,2.89,1.21,4.16,4.16,0,0,1,.9,1.4A70.36,70.36,0,0,1,464.48,394.73Z" transform="translate(-23.49 -62.3)"/>
      </g>
      <path class="cls-4" d="M408,368.13H397.85a5.69,5.69,0,0,0-5.69,5.69v41.82a5.69,5.69,0,0,0,5.69,5.69H408" transform="translate(-23.49 -62.3)"/>
      <rect class="cls-22" x="360.57" y="324.59" width="17.53" height="15.53" rx="1.95"/>
      <path class="cls-15" d="M399.34,388.46h-6a1.31,1.31,0,0,0-1.31,1.31v9.78a1.31,1.31,0,0,0,1.31,1.31h6a1.37,1.37,0,0,0,1.38-1.37v-9.66A1.37,1.37,0,0,0,399.34,388.46Z" transform="translate(-23.49 -62.3)"/>
      <path class="cls-4" d="M397.81,388.46h-4.45a1.31,1.31,0,0,0-1.31,1.31v9.78a1.31,1.31,0,0,0,1.31,1.31h4.45" transform="translate(-23.49 -62.3)"/>
      <g>
        <path class="cls-6" d="M442.22,380.65l2.91-8.36h2.21l.78,8.36h1l.16,1.77h-1l.21,2.25h-2l-.2-2.25h-3.87Zm3.87,0-.42-4.57h0l-1.55,4.57Z" transform="translate(-23.49 -62.3)"/>
        <path class="cls-6" d="M452.57,379.74l-.52,1.13.35,3.8h-2l-1.15-12.38h2l.5,5.36h0l2.12-5.36h2l-2.31,5.52,3.46,6.86H455Z" transform="translate(-23.49 -62.3)"/>
      </g>
      <path class="cls-4" d="M370.3,431.35h3.45a9,9,0,0,0,8.95-9V369.91a3.77,3.77,0,0,0-3.77-3.77H376.5" transform="translate(-23.49 -62.3)"/>
      <path class="cls-25" d="M460.07,381.09H395.75v-6a3.46,3.46,0,0,1,3.46-3.46H456.1a2.61,2.61,0,0,1,2.46,1.74A24.26,24.26,0,0,1,460.07,381.09Z" transform="translate(-23.49 -62.3)"/>
      <polygon class="cls-25" points="332.88 298.54 364.98 298.54 367.66 300.12 334.42 300.12 332.88 298.54"/>
    </g>
  </g>
</svg>
