<?xml version="1.0" encoding="utf-8"?>
<!-- Generator: Adobe Illustrator 24.1.2, SVG Export Plug-In . SVG Version: 6.00 Build 0)  -->
<svg version="1.1" id="Capa_1" xmlns="http://www.w3.org/2000/svg" xmlns:xlink="http://www.w3.org/1999/xlink" x="0px" y="0px"
	 viewBox="0 0 512 512" style="enable-background:new 0 0 512 512;" xml:space="preserve">
<style type="text/css">
	.st0{display:none;}
	.st1{display:inline;fill:#00E90D;}
	.st2{display:inline;}
	.st3{fill:#00E90D;}
</style>
<circle cx="256" cy="256" r="251.3"/>
<g class="st0">
	<path class="st1" d="M496.5,271.3c-4.6-25.5-45.9-38.7-32.9-66.5l-2.4-1.1c-10.2,25.6-27,50-32.3,77.2c15,44.1-35,67.8-71.1,77.6
		l0.4,3.4c40-0.8,77-12,82.3-56.9c10.8,9.1,28.6,18.9,33.6,31.3h1.7C495.1,317.9,503.8,295.7,496.5,271.3z M484.4,305.5h-1.1
		c-7.8-19.3-48.8-31.9-35.1-56.1h0.7C453.4,271.4,489.7,280,484.4,305.5z"/>
	<path class="st1" d="M277.7,253.4c-7.5-19.9-31.9-36.7-27-59.5l-1.7-0.9c-4.4,12.4-15.6,20.8-17,33.6c2.2,24.7,39.3,38.9,31,66
		h-1.1c-11.1-27-48.7-49.7-43.5-81.7l-2-1.1c-8.2,17.2-28.4,34.7-9.9,51.7l-0.4,0.7c-3-2-7.3-2.8-10.8-2.4
		c-8.3-12.1-24.7-27-18.7-43.1l-2-1.1c-36.4,45.5-10.8,44.9,14.9,81.3c2.6,14.2-19,31.7-24.4,45.5h-1.7
		c-23.1-24.9-57.7-46-73.9-77.2l0,0c0-0.5-4.1-11.1-5.9-15.7c1.1-1.1,2.9-1.6,4-2.6c0,0,0,0-0.1-0.1c11.2-10.2,21.8-16.9,36.4-24.7
		l6.1-27.8c-17.2-2.6-36.4-3-54.6-1.6c0.9-7.3,2.5-14.4,4.7-21.2c4-12.3,9.6-23.1,17.2-32.3c7.5-9.4,16.5-16.8,27-22.2
		s22.3-8.2,35.2-8.2c12.4,0,24,3.2,34.6,9.6c7.8,4.7,14.2,11.1,19.1,18.6l8.3,11.1c0-1.5-0.3-2.8-0.7-4.1l0,0
		c-2.5-6.3-5.9-12-10.2-17c-4.2-5-9.2-9.2-14.8-12.5c-5.5-3.4-11.6-6.1-18.1-7.8c-6.5-1.8-12.8-2.8-19.3-2.8
		c-14.2,0-27.4,2.9-39.6,8.7c-12.1,5.8-22.7,14.1-31.4,25.1c-8.8,10.8-15.8,24-20.7,39.4c-1.7,5.4-3.2,11-4.2,16.8
		c-4.1,0.5-9.1,1.3-9.1,1.5c-12.1,2.1-26.7,5.9-36.8,9.6l-7.3,29.7l1.5,0.9c2.2-1.1,5.8-2.5,8.3-3.2c15.8,5.7,26.4,15.8,38.3,26.3
		c-69.7,69-26.9,157,69.5,120.9l-0.5-2c-3.8,0.8-7.4,1.5-10.6,2C34.9,394.8,8.9,324.2,63.5,271.3c0.3,0.5,0.5,0.9,0.7,1.1
		c-0.3,0.3,6.7,12.1,6.9,12C86,323,127.4,340.4,149.4,372h2.8c1.6-3.6,56.7-81.8,53.7-83c22.7-3.4,36.3,14.6,45.5,32.6h1.7
		C264.5,302.7,288.6,277.2,277.7,253.4z M57.9,224.9v-1.1c2.4-0.7,4.9-1.2,7.3-1.5c8.6-1.3,21.9-2,29.9,0.3l0.1,1.1
		c-5.3,3.3-12.5,10-17.8,14.5C72.6,234.4,63.9,226.8,57.9,224.9z"/>
	<g class="st2">
		<path class="st3" d="M475.4,182.1c-35-35.2-93-42.2-133.1-11c-17.5,13.9-47.4,49.2-21.1,71.2c20.7,22.6,93.8,28.6,77.2,72.3
			l-0.5-0.3c-0.7-30.1-42-41.8-66.8-43.8c-34-1.3-71.4,34.6-61.2,69.9c7.3,23.7,33.9,40.2,30.2,66.2l3.3,0.9
			c7.5-17.8,16-38.7,2.2-55.8c-20.6-22.4-37.6-60.7,6.7-57.3c16.2,0.5,79.7,19,74.8,40.4l1.6,0.8c36.1-22.4,38-71-3.8-88.8
			c-15.2-8.6-37.5-17.7-45.1-32.6c-10.4-27.6,22.7-49.7,46.7-54c43.3-9.5,86.7,16.2,109.4,52.8l2.6-2.1
			C491.9,200.3,484.3,190.8,475.4,182.1z"/>
	</g>
</g>
<path class="st3" d="M274,49.8c61,80.5,120.7,158.2,181.7,237.2c-55.5,73.5-84.6,38.8-83.2,133.2c-77.7,0-154,0-231.7,0
	c0-93-27.7-58.3-84.6-131.8C115.9,209.3,176.9,131.7,238,51.2c0,8.3,1.4,12.5,1.4,16.6c0,59.7,0,117.9,0,177.6
	c0,9.7-1.4,15.3-9.7,20.8c-18,12.5-23.6,31.9-16.6,51.3c6.9,19.4,23.6,30.5,43,30.5c19.4,0,36.1-12.5,43-30.5
	c6.9-19.4,0-38.8-16.6-52.7c-4.2-4.2-9.7-11.1-9.7-16.6c0-63.8,0-126.2,0-190.1C272.6,56.7,272.6,55.3,274,49.8z"/>
</svg>
