<svg id="Layer_1" data-name="Layer 1" xmlns="http://www.w3.org/2000/svg" viewBox="0 0 692.67 675.41"><defs><style>.cls-1{fill:#072035;}.cls-2{fill:#569fd7;}</style></defs><path class="cls-1" d="M7541.35,6960.62v450.29c0,1.42-1,2.71-.55,4.18a51.88,51.88,0,0,1-1.35,9.76q-15,66.12-78.24,90.83c-12.46,4.89-25.58,6.8-38.88,7.59-.76-.06-1.52-.17-2.28-.17q-223.52,0-447,0a17.14,17.14,0,0,0-4.58.15c-.88-.06-1.76-.14-2.63-.19-15.46-1-30.47-4.09-44.5-10.75-38.86-18.47-62.55-48.8-70.69-91.15-.92-4.75-1-9.6-1.84-14.35.46-2.5-.07-5-.07-7.51q0-213.87,0-427.75c0-2.5.53-5,.07-7.51.17-1.08.42-2.15.5-3.24a116.61,116.61,0,0,1,4.14-23.59c13.32-48.39,57-84.72,106.68-88.81,2.29.46,4.46-.71,6.73-.54h457.11c2.27-.17,4.43,1,6.73.54a75.85,75.85,0,0,1,11.74,1.6c37.87,8,66.36,28.84,85,62.76a108.15,108.15,0,0,1,13.35,43.05C7540.3,6957.5,7541.61,6959,7541.35,6960.62Z" transform="translate(-6848.71 -6847.86)"/><path class="cls-2" d="M6986.6,7183.09V7037.42c0-5.92,0-5.83,5.8-5.95,14.28-.31,28.55-.79,42.83-1.05,19.89-.36,39.78-1.27,59.66-.18,18.54,1,36.57,4.6,53.5,12.5,22.84,10.65,39.73,27.18,49,50.86a107.23,107.23,0,0,1,7.27,42.54c-.32,12-1.81,23.87-5.74,35.28-8.37,24.29-24.71,41.61-47.31,53.29-11,5.69-22.82,8.94-34.95,11.2-17.48,3.25-35.15,3.59-52.84,3.16-4.17-.1-8.33-.43-12.51-.5-1.54,0-2.26.46-2.14,2.05.06.77,0,1.54,0,2.31v86c0,.88.06,1.77,0,2.64a3.79,3.79,0,0,1-3.81,3.77,18.68,18.68,0,0,1-2,0H6992c-.55,0-1.1,0-1.65,0-2.64-.2-3.51-1-3.67-3.64-.08-1.2,0-2.41,0-3.62Zm62.85-47.67q0,22.89,0,45.78c0,3,0,3,3.07,3.16,9,.4,18,.32,27,.2a106.54,106.54,0,0,0,24.68-3.54c9.05-2.3,17.37-6,24.38-12.38a36.74,36.74,0,0,0,11.38-18.49,59.78,59.78,0,0,0,1-26.1c-2.6-13.66-10-24-22.6-30.16a72,72,0,0,0-27.88-7c-12.62-.72-25.25.17-37.88,0-.54,0-1.09.06-1.64.09-1.09,0-1.56.62-1.53,1.69,0,.76,0,1.53,0,2.3Z" transform="translate(-6848.71 -6847.86)"/><path class="cls-2" d="M7235.63,7298.24v-22.42c0-.66,0-1.32,0-2,.11-4,1.43-4.81,4.85-2.85a127.75,127.75,0,0,0,28.77,12,141.47,141.47,0,0,0,47.84,5.54,44.25,44.25,0,0,0,15.95-3.64,13.51,13.51,0,0,0,5.9-5.09,12.07,12.07,0,0,0-.61-14.43,27.94,27.94,0,0,0-8.83-7.3,182.55,182.55,0,0,0-25.28-11.08,172.08,172.08,0,0,1-38.3-19.55c-14.49-10.07-25-23.16-28.42-40.84-5.06-25.83,4.53-53.31,29-69.61a89.1,89.1,0,0,1,35.32-13.69c13.3-2.21,26.65-2.38,40.08-1.53a216.43,216.43,0,0,1,29.06,3.49,107.53,107.53,0,0,1,16.35,4.92,5.86,5.86,0,0,1,4.16,5.34c.09,1,.1,2,.1,3q0,21.42,0,42.85c0,.11,0,.22,0,.33.55,4.72-2.08,6.32-7.3,4.41-2.47-.9-4.76-2.26-7.17-3.3-9.55-4.07-19.6-6.31-29.79-8a160.33,160.33,0,0,0-22.95-2,62.76,62.76,0,0,0-16.94,2.13c-5.9,1.54-9.83,5.07-11,11.35-.71,3.92.64,7.14,3,10a33.23,33.23,0,0,0,10.71,8.08,264.79,264.79,0,0,0,29,12.49,182.21,182.21,0,0,1,34.64,17.44c14,9,24.19,21,27.85,37.65,7,31.81-6.24,63.48-38.69,78.7a111.12,111.12,0,0,1-34.77,9.42,167.18,167.18,0,0,1-26,1.15c-19-.72-37.84-3-55.82-9.77-2.26-.85-4.47-1.81-6.68-2.78a6.36,6.36,0,0,1-4.14-6.45C7235.68,7314.28,7235.63,7306.26,7235.63,7298.24Z" transform="translate(-6848.71 -6847.86)"/></svg>