<svg id="Layer_1" data-name="Layer 1" xmlns="http://www.w3.org/2000/svg" viewBox="0 0 871.89 540.04">
  <defs>
    <style>
      .cls-1 {
        fill: #d9d9d9;
      }
    </style>
  </defs>
  <g>
    <path class="cls-1" d="M7625.48,7187.73c-8.21-45.18-81.61-68.73-58.4-118.25l-4.19-1.82c-18.08,45.48-48.21,89.05-57.49,137.31,26.76,78.42-62.09,120.65-126.44,138l.6,6.07c71.06-1.4,137.07-21.35,146.42-101.07,19.36,16.08,50.86,33.53,59.86,55.67h3C7623,7270.65,7638.51,7231.17,7625.48,7187.73Zm-21.43,60.83h-1.82c-13.92-34.38-86.82-56.69-62.35-99.86h1.22C7548.76,7188,7613.27,7203.23,7604.05,7248.56Z" transform="translate(-6758.18 -6890.21)"/>
    <path class="cls-1" d="M7236.24,7155.88c-13.3-35.39-56.8-65.33-48.13-106l-3-1.74c-7.85,22.09-27.76,37.1-30.22,59.85,4,44,70,69.32,55.06,117.4h-1.82c-19.8-48.17-86.6-88.57-77.47-145.19l-3.56-1.83c-14.64,30.52-50.58,61.64-17.57,92l-.61,1.21c-5.33-3.59-12.8-4.9-19.35-4.26-14.73-21.47-43.79-48.19-33.33-76.83l-3.6-1.82c-64.85,80.86-19.3,79.7,26.61,144.64,4.58,25.39-33.79,56.31-43.53,81.06h-3C6991.53,7270,6930,7232.44,6901.14,7177c.06,0,.06-.08.06-.08.12-.85-7.3-19.71-10.58-27.94,1.91-1.8,5.28-2.84,7-4.64-.06,0-.12-.09-.21-.14,19.86-18,38.64-30.11,64.72-44l10.81-49.61c-30.49-4.73-64.77-5.39-97.23-2.78a208,208,0,0,1,8.43-37.77q10.56-32.69,30.52-57.46a147.66,147.66,0,0,1,48.08-39.36c18.78-9.71,39.64-14.49,62.65-14.49a115.1,115.1,0,0,1,61.44,17.21,105.43,105.43,0,0,1,33.94,33.16l14.75,19.79a20.16,20.16,0,0,0-1.28-7.21l.06-.06a103.71,103.71,0,0,0-18.17-30.23,111.54,111.54,0,0,0-26.28-22.4,130.52,130.52,0,0,0-66.28-18.78q-38.18,0-70.48,15.42a160.66,160.66,0,0,0-56,44.51q-23.59,29-36.92,70.16a248.75,248.75,0,0,0-7.62,29.91c-7.19,1-16.08,2.32-16.11,2.58-21.62,3.8-47.41,10.55-65.38,17l-12.87,52.83,2.55,1.57a91.66,91.66,0,0,1,14.69-5.57c28.23,10.15,46.92,28.06,68,46.81-123.8,122.64-48,279.4,123.66,214.95l-.9-3.6c-6.81,1.39-13.07,2.61-18.83,3.54-143.92,27.15-190.17-98.25-92.86-192.43a7.53,7.53,0,0,0,1.07,1.79c-.49.56,12,21.62,12.15,21.45,26.43,68.68,100.15,99.75,139.51,155.83h4.84c2.9-6.26,100.91-145.63,95.61-147.63,40.45-6.11,64.45,25.94,81.06,58.08h3C7212.77,7243.69,7255.72,7198.45,7236.24,7155.88Zm-390.94-50.69-.12-1.83a96.4,96.4,0,0,1,12.81-2.66c15.36-2.44,38.86-3.48,53.18.4l.17,1.83c-9.42,5.79-22.4,17.94-31.73,25.85C6871.47,7122.14,6855.9,7108.81,6845.3,7105.19Z" transform="translate(-6758.18 -6890.21)"/>
    <path class="cls-1" d="M7117.63,7002.61l30.67,40.09c-9.43,12.46-14.36,6.57-14.16,22.44h-39.09c.11-15.68-4.61-9.87-14.23-22.41l30.79-40.23c.1,1.3.2,2.05.2,2.81,0,10,0,20,0,30a3.71,3.71,0,0,1-1.75,3.62,7.31,7.31,0,0,0-2.82,8.73,7.73,7.73,0,0,0,14.62-.08c1.1-3.27,0-6.49-2.84-8.8a4.33,4.33,0,0,1-1.67-2.72c-.11-10.73-.07-21.46-.06-32.18A8.88,8.88,0,0,1,7117.63,7002.61Z" transform="translate(-6758.18 -6890.21)"/>
    <path class="cls-1" d="M7588,7029.29c-62.23-62.66-165.36-75-236.81-19.54-31.21,24.65-84.3,87.58-37.51,126.63,37,40.22,166.8,51,137.19,128.51l-1-.55c-1.21-53.49-74.64-74.33-118.8-77.82-60.54-2.36-127,61.4-108.91,124.32,13,42.18,60.41,71.49,53.67,117.77l5.95,1.64c13.35-31.68,28.41-68.88,4-99.32-36.61-39.84-66.93-107.85,12-101.8,28.92.93,141.83,33.78,133.18,71.82l2.73,1.33c64.22-40,67.7-126.38-6.74-158-27-15.37-66.71-31.37-80.25-58-18.47-49.13,40.29-88.51,83-95.91,77.06-16.83,154.27,29,194.56,93.79l4.62-3.76A255,255,0,0,0,7588,7029.29Z" transform="translate(-6758.18 -6890.21)"/>
  </g>
</svg>
