<svg id="Capa_1" data-name="Capa 1" xmlns="http://www.w3.org/2000/svg" viewBox="0 0 512 512">
  <defs>
    <style>
      .cls-1 {
        fill: #fff;
      }
    </style>
  </defs>
  <path class="cls-1" d="M512,256c0,141.4-114.6,256-256,256S0,397.4,0,256,114.6,0,256,0,512,114.6,512,256Z"/>
  <circle cx="254.01" cy="256.07" r="105.96"/>
  <rect x="251.05" y="62.4" width="16.07" height="66.24"/>
  <rect x="169.88" y="81.82" width="16.07" height="66.24" transform="translate(-33.63 104.36) rotate(-30)"/>
  <rect x="109.28" y="139.22" width="16.07" height="66.24" transform="translate(-90.59 187.77) rotate(-60)"/>
  <rect x="85.51" y="219.23" width="16.07" height="66.24" transform="translate(-158.8 345.89) rotate(-90)"/>
  <rect x="104.92" y="300.41" width="16.07" height="66.24" transform="translate(-119.4 598.12) rotate(-120)"/>
  <rect x="162.33" y="361" width="16.07" height="66.24" transform="translate(120.84 820.62) rotate(-150)"/>
  <rect x="242.34" y="384.78" width="16.07" height="66.24" transform="translate(500.75 835.79) rotate(-180)"/>
  <rect x="323.51" y="365.36" width="16.07" height="66.24" transform="translate(817.92 577.8) rotate(150)"/>
  <rect x="384.11" y="307.96" width="16.07" height="66.24" transform="translate(883.6 172.01) rotate(120)"/>
  <rect x="407.88" y="227.95" width="16.07" height="66.24" transform="translate(676.99 -154.85) rotate(90)"/>
  <rect x="388.47" y="146.77" width="16.07" height="66.24" transform="translate(354.04 -253.44) rotate(60)"/>
  <rect x="331.06" y="86.17" width="16.07" height="66.24" transform="matrix(0.87, 0.5, -0.5, 0.87, 105.08, -153.57)"/>
</svg>
